<?xml version="1.0" standalone="yes"?>

<svg version="1.1" viewBox="0.0 0.0 614.7322834645669 441.59580052493436" fill="none" stroke="none" stroke-linecap="square" stroke-miterlimit="10" xmlns="http://www.w3.org/2000/svg" xmlns:xlink="http://www.w3.org/1999/xlink"><clipPath id="p.0"><path d="m0 0l614.7323 0l0 441.5958l-614.7323 0l0 -441.5958z" clip-rule="nonzero"></path></clipPath><g clip-path="url(#p.0)"><path fill="#000000" fill-opacity="0.0" d="m0 0l614.7323 0l0 441.5958l-614.7323 0z" fill-rule="evenodd"></path><path fill="#cfe2f3" d="m255.52493 41.952755l154.99213 0l0 144.09448l-154.99213 0z" fill-rule="evenodd"></path><path stroke="#000000" stroke-width="1.0" stroke-linejoin="round" stroke-linecap="butt" d="m255.52493 41.952755l154.99213 0l0 144.09448l-154.99213 0z" fill-rule="evenodd"></path><path fill="#000000" d="m276.46243 73.711876q0 1.265625 -0.359375 2.296875q-0.359375 1.015625 -1.0625 1.734375q-0.6875 0.71875 -1.6875 1.125q-1.0 0.390625 -2.296875 0.390625q-1.4375 0 -2.4375 -0.375q-0.984375 -0.390625 -1.609375 -1.0625q-0.625 -0.6875 -0.921875 -1.640625q-0.28125 -0.96875 -0.28125 -2.15625l0 -10.296879l2.078125 0l0 10.125004q0 0.90625 0.171875 1.59375q0.171875 0.671875 0.5625 1.140625q0.390625 0.453125 1.0 0.6875q0.609375 0.234375 1.5 0.234375q1.671875 0 2.453125 -0.953125q0.796875 -0.96875 0.796875 -2.71875l0 -10.109379l2.09375 0l0 9.984379zm27.65625 10.140625l-13.203125 0l0 -1.6875l13.203125 0l0 1.6875zm11.9296875 -10.90625q0 1.46875 -0.40625 2.625q-0.40625 1.140625 -1.15625 1.953125q-0.734375 0.796875 -1.8125 1.234375q-1.0625 0.421875 -2.390625 0.421875q-1.046875 0 -2.140625 -0.203125q-1.09375 -0.203125 -2.15625 -0.625l0 -15.875004l2.046875 0l0 4.562504l-0.09375 2.171875q0.875 -1.171875 1.875 -1.65625q1.0 -0.5 2.15625 -0.5q1.0 0 1.765625 0.421875q0.765625 0.421875 1.28125 1.203125q0.515625 0.765625 0.765625 1.84375q0.265625 1.078125 0.265625 2.421875zm-2.09375 0.09375q0 -0.921875 -0.140625 -1.6875q-0.125 -0.78125 -0.421875 -1.328125q-0.296875 -0.5625 -0.75 -0.875q-0.453125 -0.3125 -1.09375 -0.3125q-0.375 0 -0.78125 0.125q-0.390625 0.125 -0.828125 0.421875q-0.421875 0.28125 -0.90625 0.765625q-0.46875 0.46875 -1.0 1.171875l0 5.703125q0.59375 0.234375 1.203125 0.375q0.625 0.125 1.1875 0.125q0.703125 0 1.34375 -0.21875q0.640625 -0.21875 1.125 -0.734375q0.484375 -0.53125 0.765625 -1.390625q0.296875 -0.859375 0.296875 -2.140625zm12.7890625 6.0l-0.046875 -1.578125q-0.96875 0.9375 -1.953125 1.375q-0.984375 0.421875 -2.078125 0.421875q-1.015625 0 -1.734375 -0.265625q-0.703125 -0.265625 -1.171875 -0.703125q-0.453125 -0.453125 -0.671875 -1.0625q-0.21875 -0.609375 -0.21875 -1.328125q0 -1.765625 1.3125 -2.765625q1.328125 -1.015625 3.90625 -1.015625l2.4375 0l0 -1.03125q0 -1.03125 -0.671875 -1.65625q-0.671875 -0.640625 -2.046875 -0.640625q-0.984375 0 -1.953125 0.234375q-0.96875 0.21875 -2.0 0.625l0 -1.84375q0.390625 -0.140625 0.859375 -0.265625q0.46875 -0.140625 1.0 -0.234375q0.53125 -0.109375 1.09375 -0.171875q0.578125 -0.078125 1.171875 -0.078125q1.0625 0 1.921875 0.234375q0.859375 0.234375 1.4375 0.71875q0.59375 0.484375 0.90625 1.21875q0.328125 0.71875 0.328125 1.703125l0 8.109375l-1.828125 0zm-0.21875 -5.359375l-2.59375 0q-0.765625 0 -1.3125 0.15625q-0.546875 0.15625 -0.90625 0.4375q-0.34375 0.28125 -0.515625 0.671875q-0.171875 0.390625 -0.171875 0.875q0 0.34375 0.09375 0.65625q0.109375 0.3125 0.34375 0.5625q0.234375 0.234375 0.609375 0.375q0.375 0.140625 0.921875 0.140625q0.703125 0 1.609375 -0.421875q0.90625 -0.4375 1.921875 -1.359375l0 -2.09375zm6.3359375 -6.40625l1.859375 0l0.0625 2.171875q1.046875 -1.265625 2.046875 -1.828125q1.015625 -0.5625 2.046875 -0.5625q1.828125 0 2.765625 1.1875q0.953125 1.1875 0.890625 3.515625l-2.0625 0q0.03125 -1.546875 -0.453125 -2.234375q-0.484375 -0.703125 -1.421875 -0.703125q-0.421875 0 -0.84375 0.15625q-0.40625 0.140625 -0.84375 0.46875q-0.4375 0.3125 -0.9375 0.8125q-0.484375 0.5 -1.046875 1.21875l0 7.5625l-2.0625 0l0 -11.765625z" fill-rule="nonzero"></path><path fill="#000000" d="m276.46243 102.711876q0 1.265625 -0.359375 2.296875q-0.359375 1.015625 -1.0625 1.734375q-0.6875 0.71875 -1.6875 1.125q-1.0 0.390625 -2.296875 0.390625q-1.4375 0 -2.4375 -0.375q-0.984375 -0.390625 -1.609375 -1.0625q-0.625 -0.6875 -0.921875 -1.640625q-0.28125 -0.96875 -0.28125 -2.15625l0 -10.296875l2.078125 0l0 10.125q0 0.90625 0.171875 1.59375q0.171875 0.671875 0.5625 1.140625q0.390625 0.453125 1.0 0.6875q0.609375 0.234375 1.5 0.234375q1.671875 0 2.453125 -0.953125q0.796875 -0.96875 0.796875 -2.71875l0 -10.109375l2.09375 0l0 9.984375zm27.65625 10.140625l-13.203125 0l0 -1.6875l13.203125 0l0 1.6875zm12.3046875 -19.46875q-1.59375 -0.34375 -2.765625 -0.34375q-2.75 0 -2.75 2.875l0 2.0625l5.15625 0l0 1.703125l-5.15625 0l0 8.359375l-2.078125 0l0 -8.359375l-3.78125 0l0 -1.703125l3.78125 0l0 -1.9375q0 -4.703125 4.90625 -4.703125q1.21875 0 2.6875 0.28125l0 1.765625zm-12.3125 2.890625l0 0zm25.320312 5.78125q0 1.375 -0.390625 2.515625q-0.390625 1.140625 -1.125 1.96875q-0.71875 0.8125 -1.765625 1.265625q-1.03125 0.453125 -2.359375 0.453125q-1.265625 0 -2.265625 -0.390625q-1.0 -0.40625 -1.703125 -1.15625q-0.703125 -0.765625 -1.078125 -1.890625q-0.359375 -1.125 -0.359375 -2.59375q0 -1.375 0.390625 -2.5q0.390625 -1.140625 1.109375 -1.953125q0.734375 -0.8125 1.765625 -1.265625q1.046875 -0.453125 2.375 -0.453125q1.265625 0 2.265625 0.40625q1.0 0.390625 1.6875 1.140625q0.703125 0.75 1.078125 1.875q0.375 1.125 0.375 2.578125zm-2.09375 0.09375q0 -1.078125 -0.25 -1.890625q-0.234375 -0.828125 -0.6875 -1.359375q-0.4375 -0.546875 -1.078125 -0.828125q-0.625 -0.28125 -1.421875 -0.28125q-0.90625 0 -1.5625 0.359375q-0.640625 0.359375 -1.0625 0.96875q-0.421875 0.59375 -0.609375 1.390625q-0.1875 0.78125 -0.1875 1.640625q0 1.09375 0.234375 1.921875q0.234375 0.8125 0.671875 1.359375q0.453125 0.546875 1.078125 0.828125q0.640625 0.265625 1.4375 0.265625q0.921875 0 1.5625 -0.359375q0.65625 -0.359375 1.0625 -0.953125q0.421875 -0.59375 0.609375 -1.375q0.203125 -0.796875 0.203125 -1.6875zm15.2890625 -0.09375q0 1.375 -0.390625 2.515625q-0.390625 1.140625 -1.125 1.96875q-0.71875 0.8125 -1.765625 1.265625q-1.03125 0.453125 -2.359375 0.453125q-1.265625 0 -2.265625 -0.390625q-1.0 -0.40625 -1.703125 -1.15625q-0.703125 -0.765625 -1.078125 -1.890625q-0.359375 -1.125 -0.359375 -2.59375q0 -1.375 0.390625 -2.5q0.390625 -1.140625 1.109375 -1.953125q0.734375 -0.8125 1.765625 -1.265625q1.046875 -0.453125 2.375 -0.453125q1.265625 0 2.265625 0.40625q1.0 0.390625 1.6875 1.140625q0.703125 0.75 1.078125 1.875q0.375 1.125 0.375 2.578125zm-2.09375 0.09375q0 -1.078125 -0.25 -1.890625q-0.234375 -0.828125 -0.6875 -1.359375q-0.4375 -0.546875 -1.078125 -0.828125q-0.625 -0.28125 -1.421875 -0.28125q-0.90625 0 -1.5625 0.359375q-0.640625 0.359375 -1.0625 0.96875q-0.421875 0.59375 -0.609375 1.390625q-0.1875 0.78125 -0.1875 1.640625q0 1.09375 0.234375 1.921875q0.234375 0.8125 0.671875 1.359375q0.453125 0.546875 1.078125 0.828125q0.640625 0.265625 1.4375 0.265625q0.921875 0 1.5625 -0.359375q0.65625 -0.359375 1.0625 -0.953125q0.421875 -0.59375 0.609375 -1.375q0.203125 -0.796875 0.203125 -1.6875z" fill-rule="nonzero"></path><path fill="#000000" d="m276.71243 123.50875l-4.53125 0l0 13.531242l-2.109375 0l0 -13.531242l-4.53125 0l0 -1.78125l11.171875 0l0 1.78125zm27.40625 18.343742l-13.203125 0l0 -1.6875l13.203125 0l0 1.6875zm10.2578125 -4.8125l0 -8.453125q0 -0.546875 -0.046875 -0.8906174q-0.03125 -0.359375 -0.125 -0.5625q-0.078125 -0.203125 -0.21875 -0.28125q-0.140625 -0.09375 -0.328125 -0.09375q-0.234375 0 -0.4375 0.140625q-0.203125 0.140625 -0.4375 0.46875q-0.21875 0.3125 -0.5 0.8281174q-0.265625 0.515625 -0.640625 1.28125l0 7.5625l-1.875 0l0 -8.234375q0 -0.640625 -0.046875 -1.0312424q-0.03125 -0.40625 -0.125 -0.625q-0.078125 -0.21875 -0.21875 -0.296875q-0.140625 -0.09375 -0.34375 -0.09375q-0.203125 0 -0.390625 0.125q-0.1875 0.109375 -0.421875 0.421875q-0.234375 0.296875 -0.515625 0.8281174q-0.28125 0.53125 -0.65625 1.34375l0 7.5625l-1.875 0l0 -11.765617l1.546875 0l0.09375 2.234375q0.3125 -0.671875 0.59375 -1.140625q0.296875 -0.46875 0.59375 -0.75q0.3125 -0.28125 0.65625 -0.421875q0.34375 -0.140625 0.765625 -0.140625q0.953125 0 1.4375 0.625q0.5 0.625 0.5 1.921875q0.28125 -0.609375 0.546875 -1.078125q0.265625 -0.484375 0.578125 -0.796875q0.3125 -0.328125 0.6875 -0.5q0.375 -0.171875 0.859375 -0.171875q2.21875 0 2.21875 3.4218674l0 8.5625l-1.875 0zm12.3671875 0l-0.046875 -1.578125q-0.96875 0.9375 -1.953125 1.375q-0.984375 0.421875 -2.078125 0.421875q-1.015625 0 -1.734375 -0.265625q-0.703125 -0.265625 -1.171875 -0.703125q-0.453125 -0.453125 -0.671875 -1.0625q-0.21875 -0.609375 -0.21875 -1.328125q0 -1.765625 1.3125 -2.765625q1.328125 -1.015625 3.90625 -1.015625l2.4375 0l0 -1.03125q0 -1.03125 -0.671875 -1.6562424q-0.671875 -0.640625 -2.046875 -0.640625q-0.984375 0 -1.953125 0.234375q-0.96875 0.21875 -2.0 0.625l0 -1.84375q0.390625 -0.140625 0.859375 -0.265625q0.46875 -0.140625 1.0 -0.234375q0.53125 -0.109375 1.09375 -0.171875q0.578125 -0.078125 1.171875 -0.078125q1.0625 0 1.921875 0.234375q0.859375 0.234375 1.4375 0.71875q0.59375 0.484375 0.90625 1.21875q0.328125 0.71875 0.328125 1.7031174l0 8.109375l-1.828125 0zm-0.21875 -5.359375l-2.59375 0q-0.765625 0 -1.3125 0.15625q-0.546875 0.15625 -0.90625 0.4375q-0.34375 0.28125 -0.515625 0.671875q-0.171875 0.390625 -0.171875 0.875q0 0.34375 0.09375 0.65625q0.109375 0.3125 0.34375 0.5625q0.234375 0.234375 0.609375 0.375q0.375 0.140625 0.921875 0.140625q0.703125 0 1.609375 -0.421875q0.90625 -0.4375 1.921875 -1.359375l0 -2.09375zm9.8671875 -4.7187424l-3.484375 0l0 -1.6875l5.546875 0l0 10.062492l3.5 0l0 1.703125l-9.4375 0l0 -1.703125l3.875 0l0 -8.374992zm0.703125 -6.625q0.34375 0 0.640625 0.125q0.296875 0.125 0.5 0.34375q0.21875 0.21875 0.34375 0.515625q0.125 0.28125 0.125 0.625q0 0.328125 -0.125 0.625q-0.125 0.28125 -0.34375 0.515625q-0.203125 0.21875 -0.5 0.34375q-0.296875 0.125 -0.640625 0.125q-0.328125 0 -0.625 -0.125q-0.296875 -0.125 -0.515625 -0.34375q-0.21875 -0.234375 -0.34375 -0.515625q-0.109375 -0.296875 -0.109375 -0.625q0 -0.34375 0.109375 -0.625q0.125 -0.296875 0.34375 -0.515625q0.21875 -0.21875 0.515625 -0.34375q0.296875 -0.125 0.625 -0.125zm8.4765625 4.9375l1.8125 0l0.09375 1.890625q0.515625 -0.609375 0.984375 -1.0q0.484375 -0.40625 0.9375 -0.65625q0.46875 -0.25 0.953125 -0.34375q0.484375 -0.109375 1.0 -0.109375q1.8125 0 2.734375 1.078125q0.9375 1.078125 0.9375 3.2343674l0 7.671875l-2.03125 0l0 -7.515625q0 -1.375 -0.515625 -2.0312424q-0.515625 -0.671875 -1.53125 -0.671875q-0.375 0 -0.734375 0.109375q-0.359375 0.109375 -0.75 0.390625q-0.390625 0.265625 -0.84375 0.7343674q-0.4375 0.46875 -1.0 1.171875l0 7.8125l-2.046875 0l0 -11.765617z" fill-rule="nonzero"></path><path fill="#000000" d="m276.46243 160.71187q0 1.265625 -0.359375 2.296875q-0.359375 1.015625 -1.0625 1.734375q-0.6875 0.71875 -1.6875 1.125q-1.0 0.390625 -2.296875 0.390625q-1.4375 0 -2.4375 -0.375q-0.984375 -0.390625 -1.609375 -1.0625q-0.625 -0.6875 -0.921875 -1.640625q-0.28125 -0.96875 -0.28125 -2.15625l0 -10.296875l2.078125 0l0 10.125q0 0.90625 0.171875 1.59375q0.171875 0.671875 0.5625 1.140625q0.390625 0.453125 1.0 0.6875q0.609375 0.234375 1.5 0.234375q1.671875 0 2.453125 -0.953125q0.796875 -0.96875 0.796875 -2.71875l0 -10.109375l2.09375 0l0 9.984375zm27.65625 10.14064l-13.203125 0l0 -1.6875153l13.203125 0l0 1.6875153zm11.9296875 -10.906265q0 1.5625 -0.453125 2.734375q-0.4375 1.171875 -1.21875 1.953125q-0.765625 0.765625 -1.828125 1.15625q-1.046875 0.390625 -2.265625 0.390625q-0.5625 0 -1.125 -0.0625q-0.5625 -0.046875 -1.125 -0.203125l0 4.9375153l-2.046875 0l0 -16.57814l1.8125 0l0.140625 1.96875q0.875 -1.203125 1.859375 -1.6875q1.0 -0.5 2.171875 -0.5q1.0 0 1.765625 0.421875q0.765625 0.421875 1.28125 1.203125q0.515625 0.765625 0.765625 1.84375q0.265625 1.078125 0.265625 2.421875zm-2.09375 0.09375q0 -0.921875 -0.140625 -1.6875q-0.125 -0.78125 -0.421875 -1.328125q-0.296875 -0.5625 -0.75 -0.875q-0.453125 -0.3125 -1.09375 -0.3125q-0.375 0 -0.78125 0.125q-0.390625 0.125 -0.828125 0.421875q-0.421875 0.28125 -0.90625 0.765625q-0.46875 0.46875 -1.0 1.171875l0 5.703125q0.5625 0.234375 1.171875 0.375q0.625 0.125 1.21875 0.125q1.65625 0 2.59375 -1.109375q0.9375 -1.125 0.9375 -3.375zm5.7109375 -5.765625l1.859375 0l0.0625 2.171875q1.046875 -1.265625 2.046875 -1.828125q1.015625 -0.5625 2.046875 -0.5625q1.828125 0 2.765625 1.1875q0.953125 1.1875 0.890625 3.515625l-2.0625 0q0.03125 -1.546875 -0.453125 -2.234375q-0.484375 -0.703125 -1.421875 -0.703125q-0.421875 0 -0.84375 0.15625q-0.40625 0.140625 -0.84375 0.46875q-0.4375 0.3125 -0.9375 0.8125q-0.484375 0.5 -1.046875 1.21875l0 7.5625l-2.0625 0l0 -11.765625zm16.726562 1.6875l-3.484375 0l0 -1.6875l5.546875 0l0 10.0625l3.5 0l0 1.703125l-9.4375 0l0 -1.703125l3.875 0l0 -8.375zm0.703125 -6.625q0.34375 0 0.640625 0.125q0.296875 0.125 0.5 0.34375q0.21875 0.21875 0.34375 0.515625q0.125 0.28125 0.125 0.625q0 0.328125 -0.125 0.625q-0.125 0.28125 -0.34375 0.515625q-0.203125 0.21875 -0.5 0.34375q-0.296875 0.125 -0.640625 0.125q-0.328125 0 -0.625 -0.125q-0.296875 -0.125 -0.515625 -0.34375q-0.21875 -0.234375 -0.34375 -0.515625q-0.109375 -0.296875 -0.109375 -0.625q0 -0.34375 0.109375 -0.625q0.125 -0.296875 0.34375 -0.515625q0.21875 -0.21875 0.515625 -0.34375q0.296875 -0.125 0.625 -0.125zm8.4765625 4.9375l1.8125 0l0.09375 1.890625q0.515625 -0.609375 0.984375 -1.0q0.484375 -0.40625 0.9375 -0.65625q0.46875 -0.25 0.953125 -0.34375q0.484375 -0.109375 1.0 -0.109375q1.8125 0 2.734375 1.078125q0.9375 1.078125 0.9375 3.234375l0 7.671875l-2.03125 0l0 -7.515625q0 -1.375 -0.515625 -2.03125q-0.515625 -0.671875 -1.53125 -0.671875q-0.375 0 -0.734375 0.109375q-0.359375 0.109375 -0.75 0.390625q-0.390625 0.265625 -0.84375 0.734375q-0.4375 0.46875 -1.0 1.171875l0 7.8125l-2.046875 0l0 -11.765625zm22.679688 11.59375q-0.6875 0.1875 -1.4375 0.265625q-0.734375 0.078125 -1.5 0.078125q-2.203125 0 -3.296875 -1.0q-1.09375 -1.015625 -1.09375 -3.09375l0 -6.140625l-3.296875 0l0 -1.703125l3.296875 0l0 -3.234375l2.046875 -0.53125l0 3.765625l5.28125 0l0 1.703125l-5.28125 0l0 5.984375q0 1.265625 0.671875 1.890625q0.671875 0.625 1.984375 0.625q0.5625 0 1.21875 -0.078125q0.671875 -0.09375 1.40625 -0.28125l0 1.75zm14.1484375 -14.484375q-1.59375 -0.34375 -2.765625 -0.34375q-2.75 0 -2.75 2.875l0 2.0625l5.15625 0l0 1.703125l-5.15625 0l0 8.359375l-2.078125 0l0 -8.359375l-3.78125 0l0 -1.703125l3.78125 0l0 -1.9375q0 -4.703125 4.90625 -4.703125q1.21875 0 2.6875 0.28125l0 1.765625zm-12.3125 2.890625l0 0z" fill-rule="nonzero"></path><path fill="#000000" fill-opacity="0.0" d="m255.52493 0l154.99213 0l0 41.952755l-154.99213 0z" fill-rule="evenodd"></path><path fill="#000000" d="m274.79056 26.992756l0 -8.453125q0 -0.546875 -0.046875 -0.890625q-0.03125 -0.359375 -0.125 -0.5625q-0.078125 -0.203125 -0.21875 -0.28125q-0.140625 -0.09375 -0.328125 -0.09375q-0.234375 0 -0.4375 0.140625q-0.203125 0.140625 -0.4375 0.46875q-0.21875 0.3125 -0.5 0.828125q-0.265625 0.515625 -0.640625 1.28125l0 7.5625l-1.875 0l0 -8.234375q0 -0.640625 -0.046875 -1.03125q-0.03125 -0.40625 -0.125 -0.625q-0.078125 -0.21875 -0.21875 -0.296875q-0.140625 -0.09375 -0.34375 -0.09375q-0.203125 0 -0.390625 0.125q-0.1875 0.109375 -0.421875 0.421875q-0.234375 0.296875 -0.515625 0.828125q-0.28125 0.53125 -0.65625 1.34375l0 7.5625l-1.875 0l0 -11.765625l1.546875 0l0.09375 2.234375q0.3125 -0.671875 0.59375 -1.140625q0.296875 -0.46875 0.59375 -0.75q0.3125 -0.28125 0.65625 -0.421875q0.34375 -0.140625 0.765625 -0.140625q0.953125 0 1.4375 0.625q0.5 0.625 0.5 1.921875q0.28125 -0.609375 0.546875 -1.078125q0.265625 -0.484375 0.578125 -0.796875q0.3125 -0.328125 0.6875 -0.5q0.375 -0.171875 0.859375 -0.171875q2.21875 0 2.21875 3.421875l0 8.5625l-1.875 0zm12.3671875 0l-0.046875 -1.578125q-0.96875 0.9375 -1.953125 1.375q-0.984375 0.421875 -2.078125 0.421875q-1.015625 0 -1.734375 -0.265625q-0.703125 -0.265625 -1.171875 -0.703125q-0.453125 -0.453125 -0.671875 -1.0625q-0.21875 -0.609375 -0.21875 -1.328125q0 -1.765625 1.3125 -2.765625q1.328125 -1.015625 3.90625 -1.015625l2.4375 0l0 -1.03125q0 -1.03125 -0.671875 -1.65625q-0.671875 -0.640625 -2.046875 -0.640625q-0.984375 0 -1.953125 0.234375q-0.96875 0.21875 -2.0 0.625l0 -1.84375q0.390625 -0.140625 0.859375 -0.265625q0.46875 -0.140625 1.0 -0.234375q0.53125 -0.109375 1.09375 -0.171875q0.578125 -0.078125 1.171875 -0.078125q1.0625 0 1.921875 0.234375q0.859375 0.234375 1.4375 0.71875q0.59375 0.484375 0.90625 1.21875q0.328125 0.71875 0.328125 1.703125l0 8.109375l-1.828125 0zm-0.21875 -5.359375l-2.59375 0q-0.765625 0 -1.3125 0.15625q-0.546875 0.15625 -0.90625 0.4375q-0.34375 0.28125 -0.515625 0.671875q-0.171875 0.390625 -0.171875 0.875q0 0.34375 0.09375 0.65625q0.109375 0.3125 0.34375 0.5625q0.234375 0.234375 0.609375 0.375q0.375 0.140625 0.921875 0.140625q0.703125 0 1.609375 -0.421875q0.90625 -0.4375 1.921875 -1.359375l0 -2.09375zm9.8671875 -4.71875l-3.484375 0l0 -1.6875l5.546875 0l0 10.0625l3.5 0l0 1.703125l-9.4375 0l0 -1.703125l3.875 0l0 -8.375zm0.703125 -6.625q0.34375 0 0.640625 0.125q0.296875 0.125 0.5 0.34375q0.21875 0.21875 0.34375 0.515625q0.125 0.28125 0.125 0.625q0 0.328125 -0.125 0.625q-0.125 0.28125 -0.34375 0.515625q-0.203125 0.21875 -0.5 0.34375q-0.296875 0.125 -0.640625 0.125q-0.328125 0 -0.625 -0.125q-0.296875 -0.125 -0.515625 -0.34375q-0.21875 -0.234375 -0.34375 -0.515625q-0.109375 -0.296875 -0.109375 -0.625q0 -0.34375 0.109375 -0.625q0.125 -0.296875 0.34375 -0.515625q0.21875 -0.21875 0.515625 -0.34375q0.296875 -0.125 0.625 -0.125zm8.4765625 4.9375l1.8125 0l0.09375 1.890625q0.515625 -0.609375 0.984375 -1.0q0.484375 -0.40625 0.9375 -0.65625q0.46875 -0.25 0.953125 -0.34375q0.484375 -0.109375 1.0 -0.109375q1.8125 0 2.734375 1.078125q0.9375 1.078125 0.9375 3.234375l0 7.671875l-2.03125 0l0 -7.515625q0 -1.375 -0.515625 -2.03125q-0.515625 -0.671875 -1.53125 -0.671875q-0.375 0 -0.734375 0.109375q-0.359375 0.109375 -0.75 0.390625q-0.390625 0.265625 -0.84375 0.734375q-0.4375 0.46875 -1.0 1.171875l0 7.8125l-2.046875 0l0 -11.765625zm17.820312 8.078125q0.40625 0 0.765625 0.15625q0.359375 0.140625 0.609375 0.421875q0.265625 0.265625 0.421875 0.625q0.15625 0.34375 0.15625 0.765625q0 0.390625 -0.15625 0.75q-0.15625 0.34375 -0.421875 0.609375q-0.25 0.265625 -0.609375 0.421875q-0.359375 0.15625 -0.765625 0.15625q-0.40625 0 -0.765625 -0.15625q-0.34375 -0.15625 -0.609375 -0.421875q-0.265625 -0.265625 -0.421875 -0.609375q-0.140625 -0.359375 -0.140625 -0.75q0 -0.421875 0.140625 -0.765625q0.15625 -0.359375 0.421875 -0.625q0.265625 -0.28125 0.609375 -0.421875q0.359375 -0.15625 0.765625 -0.15625zm18.820312 -2.296875q0 1.375 -0.390625 2.515625q-0.390625 1.140625 -1.125 1.96875q-0.71875 0.8125 -1.765625 1.265625q-1.03125 0.453125 -2.359375 0.453125q-1.265625 0 -2.265625 -0.390625q-1.0 -0.40625 -1.703125 -1.15625q-0.703125 -0.765625 -1.078125 -1.890625q-0.359375 -1.125 -0.359375 -2.59375q0 -1.375 0.390625 -2.5q0.390625 -1.140625 1.109375 -1.953125q0.734375 -0.8125 1.765625 -1.265625q1.046875 -0.453125 2.375 -0.453125q1.265625 0 2.265625 0.40625q1.0 0.390625 1.6875 1.140625q0.703125 0.75 1.078125 1.875q0.375 1.125 0.375 2.578125zm-2.09375 0.09375q0 -1.078125 -0.25 -1.890625q-0.234375 -0.828125 -0.6875 -1.359375q-0.4375 -0.546875 -1.078125 -0.828125q-0.625 -0.28125 -1.421875 -0.28125q-0.90625 0 -1.5625 0.359375q-0.640625 0.359375 -1.0625 0.96875q-0.421875 0.59375 -0.609375 1.390625q-0.1875 0.78125 -0.1875 1.640625q0 1.09375 0.234375 1.921875q0.234375 0.8125 0.671875 1.359375q0.453125 0.546875 1.078125 0.828125q0.640625 0.265625 1.4375 0.265625q0.921875 0 1.5625 -0.359375q0.65625 -0.359375 1.0625 -0.953125q0.421875 -0.59375 0.609375 -1.375q0.203125 -0.796875 0.203125 -1.6875z" fill-rule="nonzero"></path><path fill="#cfe2f3" d="m443.0866 41.952755l154.99213 0l0 144.09448l-154.99213 0z" fill-rule="evenodd"></path><path stroke="#000000" stroke-width="1.0" stroke-linejoin="round" stroke-linecap="butt" d="m443.0866 41.952755l154.99213 0l0 144.09448l-154.99213 0z" fill-rule="evenodd"></path><path fill="#000000" d="m464.2741 80.00875l-4.53125 0l0 13.53125l-2.109375 0l0 -13.53125l-4.53125 0l0 -1.78125l11.171875 0l0 1.78125zm27.40625 18.34375l-13.203125 0l0 -1.6875l13.203125 0l0 1.6875zm11.9296875 -10.90625q0 1.46875 -0.40625 2.625q-0.40625 1.140625 -1.15625 1.953125q-0.734375 0.796875 -1.8125 1.234375q-1.0625 0.421875 -2.390625 0.421875q-1.046875 0 -2.140625 -0.203125q-1.09375 -0.203125 -2.15625 -0.625l0 -15.875l2.046875 0l0 4.5625l-0.09375 2.171875q0.875 -1.171875 1.875 -1.65625q1.0 -0.5 2.15625 -0.5q1.0 0 1.765625 0.421875q0.765625 0.421875 1.28125 1.203125q0.515625 0.765625 0.765625 1.84375q0.265625 1.078125 0.265625 2.421875zm-2.09375 0.09375q0 -0.921875 -0.140625 -1.6875q-0.125 -0.78125 -0.421875 -1.328125q-0.296875 -0.5625 -0.75 -0.875q-0.453125 -0.3125 -1.09375 -0.3125q-0.375 0 -0.78125 0.125q-0.390625 0.125 -0.828125 0.421875q-0.421875 0.28125 -0.90625 0.765625q-0.46875 0.46875 -1.0 1.171875l0 5.703125q0.59375 0.234375 1.203125 0.375q0.625 0.125 1.1875 0.125q0.703125 0 1.34375 -0.21875q0.640625 -0.21875 1.125 -0.734375q0.484375 -0.53125 0.765625 -1.390625q0.296875 -0.859375 0.296875 -2.140625zm12.7890625 6.0l-0.046875 -1.578125q-0.96875 0.9375 -1.953125 1.375q-0.984375 0.421875 -2.078125 0.421875q-1.015625 0 -1.734375 -0.265625q-0.703125 -0.265625 -1.171875 -0.703125q-0.453125 -0.453125 -0.671875 -1.0625q-0.21875 -0.609375 -0.21875 -1.328125q0 -1.765625 1.3125 -2.765625q1.328125 -1.015625 3.90625 -1.015625l2.4375 0l0 -1.03125q0 -1.03125 -0.671875 -1.65625q-0.671875 -0.640625 -2.046875 -0.640625q-0.984375 0 -1.953125 0.234375q-0.96875 0.21875 -2.0 0.625l0 -1.84375q0.390625 -0.140625 0.859375 -0.265625q0.46875 -0.140625 1.0 -0.234375q0.53125 -0.109375 1.09375 -0.171875q0.578125 -0.078125 1.171875 -0.078125q1.0625 0 1.921875 0.234375q0.859375 0.234375 1.4375 0.71875q0.59375 0.484375 0.90625 1.21875q0.328125 0.71875 0.328125 1.703125l0 8.109375l-1.828125 0zm-0.21875 -5.359375l-2.59375 0q-0.765625 0 -1.3125 0.15625q-0.546875 0.15625 -0.90625 0.4375q-0.34375 0.28125 -0.515625 0.671875q-0.171875 0.390625 -0.171875 0.875q0 0.34375 0.09375 0.65625q0.109375 0.3125 0.34375 0.5625q0.234375 0.234375 0.609375 0.375q0.375 0.140625 0.921875 0.140625q0.703125 0 1.609375 -0.421875q0.90625 -0.4375 1.921875 -1.359375l0 -2.09375zm6.3359375 -6.40625l1.859375 0l0.0625 2.171875q1.046875 -1.265625 2.046875 -1.828125q1.015625 -0.5625 2.046875 -0.5625q1.828125 0 2.765625 1.1875q0.953125 1.1875 0.890625 3.515625l-2.0625 0q0.03125 -1.546875 -0.453125 -2.234375q-0.484375 -0.703125 -1.421875 -0.703125q-0.421875 0 -0.84375 0.15625q-0.40625 0.140625 -0.84375 0.46875q-0.4375 0.3125 -0.9375 0.8125q-0.484375 0.5 -1.046875 1.21875l0 7.5625l-2.0625 0l0 -11.765625z" fill-rule="nonzero"></path><path fill="#000000" d="m464.2741 109.00875l-4.53125 0l0 13.53125l-2.109375 0l0 -13.53125l-4.53125 0l0 -1.78125l11.171875 0l0 1.78125zm27.40625 18.34375l-13.203125 0l0 -1.6875l13.203125 0l0 1.6875zm12.3046875 -19.46875q-1.59375 -0.34375 -2.765625 -0.34375q-2.75 0 -2.75 2.875l0 2.0625l5.15625 0l0 1.703125l-5.15625 0l0 8.359375l-2.078125 0l0 -8.359375l-3.78125 0l0 -1.703125l3.78125 0l0 -1.9375q0 -4.703125 4.90625 -4.703125q1.21875 0 2.6875 0.28125l0 1.765625zm-12.3125 2.890625l0 0zm25.320312 5.78125q0 1.375 -0.390625 2.515625q-0.390625 1.140625 -1.125 1.96875q-0.71875 0.8125 -1.765625 1.265625q-1.03125 0.453125 -2.359375 0.453125q-1.265625 0 -2.265625 -0.390625q-1.0 -0.40625 -1.703125 -1.15625q-0.703125 -0.765625 -1.078125 -1.890625q-0.359375 -1.125 -0.359375 -2.59375q0 -1.375 0.390625 -2.5q0.390625 -1.140625 1.109375 -1.953125q0.734375 -0.8125 1.765625 -1.265625q1.046875 -0.453125 2.375 -0.453125q1.265625 0 2.265625 0.40625q1.0 0.390625 1.6875 1.140625q0.703125 0.75 1.078125 1.875q0.375 1.125 0.375 2.578125zm-2.09375 0.09375q0 -1.078125 -0.25 -1.890625q-0.234375 -0.828125 -0.6875 -1.359375q-0.4375 -0.546875 -1.078125 -0.828125q-0.625 -0.28125 -1.421875 -0.28125q-0.90625 0 -1.5625 0.359375q-0.640625 0.359375 -1.0625 0.96875q-0.421875 0.59375 -0.609375 1.390625q-0.1875 0.78125 -0.1875 1.640625q0 1.09375 0.234375 1.921875q0.234375 0.8125 0.671875 1.359375q0.453125 0.546875 1.078125 0.828125q0.640625 0.265625 1.4375 0.265625q0.921875 0 1.5625 -0.359375q0.65625 -0.359375 1.0625 -0.953125q0.421875 -0.59375 0.609375 -1.375q0.203125 -0.796875 0.203125 -1.6875zm15.2890625 -0.09375q0 1.375 -0.390625 2.515625q-0.390625 1.140625 -1.125 1.96875q-0.71875 0.8125 -1.765625 1.265625q-1.03125 0.453125 -2.359375 0.453125q-1.265625 0 -2.265625 -0.390625q-1.0 -0.40625 -1.703125 -1.15625q-0.703125 -0.765625 -1.078125 -1.890625q-0.359375 -1.125 -0.359375 -2.59375q0 -1.375 0.390625 -2.5q0.390625 -1.140625 1.109375 -1.953125q0.734375 -0.8125 1.765625 -1.265625q1.046875 -0.453125 2.375 -0.453125q1.265625 0 2.265625 0.40625q1.0 0.390625 1.6875 1.140625q0.703125 0.75 1.078125 1.875q0.375 1.125 0.375 2.578125zm-2.09375 0.09375q0 -1.078125 -0.25 -1.890625q-0.234375 -0.828125 -0.6875 -1.359375q-0.4375 -0.546875 -1.078125 -0.828125q-0.625 -0.28125 -1.421875 -0.28125q-0.90625 0 -1.5625 0.359375q-0.640625 0.359375 -1.0625 0.96875q-0.421875 0.59375 -0.609375 1.390625q-0.1875 0.78125 -0.1875 1.640625q0 1.09375 0.234375 1.921875q0.234375 0.8125 0.671875 1.359375q0.453125 0.546875 1.078125 0.828125q0.640625 0.265625 1.4375 0.265625q0.921875 0 1.5625 -0.359375q0.65625 -0.359375 1.0625 -0.953125q0.421875 -0.59375 0.609375 -1.375q0.203125 -0.796875 0.203125 -1.6875z" fill-rule="nonzero"></path><path fill="#000000" d="m464.0241 146.21187q0 1.265625 -0.359375 2.296875q-0.359375 1.015625 -1.0625 1.734375q-0.6875 0.71875 -1.6875 1.125q-1.0 0.390625 -2.296875 0.390625q-1.4375 0 -2.4375 -0.375q-0.984375 -0.390625 -1.609375 -1.0625q-0.625 -0.6875 -0.921875 -1.640625q-0.28125 -0.96875 -0.28125 -2.15625l0 -10.296875l2.078125 0l0 10.125q0 0.90625 0.171875 1.59375q0.171875 0.671875 0.5625 1.140625q0.390625 0.453125 1.0 0.6875q0.609375 0.234375 1.5 0.234375q1.671875 0 2.453125 -0.953125q0.796875 -0.96875 0.796875 -2.71875l0 -10.109375l2.09375 0l0 9.984375zm27.65625 10.140625l-13.203125 0l0 -1.6875l13.203125 0l0 1.6875zm11.9296875 -10.90625q0 1.5625 -0.453125 2.734375q-0.4375 1.171875 -1.21875 1.953125q-0.765625 0.765625 -1.828125 1.15625q-1.046875 0.390625 -2.265625 0.390625q-0.5625 0 -1.125 -0.0625q-0.5625 -0.046875 -1.125 -0.203125l0 4.9375l-2.046875 0l0 -16.578125l1.8125 0l0.140625 1.96875q0.875 -1.203125 1.859375 -1.6875q1.0 -0.5 2.171875 -0.5q1.0 0 1.765625 0.421875q0.765625 0.421875 1.28125 1.203125q0.515625 0.765625 0.765625 1.84375q0.265625 1.078125 0.265625 2.421875zm-2.09375 0.09375q0 -0.921875 -0.140625 -1.6875q-0.125 -0.78125 -0.421875 -1.328125q-0.296875 -0.5625 -0.75 -0.875q-0.453125 -0.3125 -1.09375 -0.3125q-0.375 0 -0.78125 0.125q-0.390625 0.125 -0.828125 0.421875q-0.421875 0.28125 -0.90625 0.765625q-0.46875 0.46875 -1.0 1.171875l0 5.703125q0.5625 0.234375 1.171875 0.375q0.625 0.125 1.21875 0.125q1.65625 0 2.59375 -1.109375q0.9375 -1.125 0.9375 -3.375zm5.7109375 -5.765625l1.859375 0l0.0625 2.171875q1.046875 -1.265625 2.046875 -1.828125q1.015625 -0.5625 2.046875 -0.5625q1.828125 0 2.765625 1.1875q0.953125 1.1875 0.890625 3.515625l-2.0625 0q0.03125 -1.546875 -0.453125 -2.234375q-0.484375 -0.703125 -1.421875 -0.703125q-0.421875 0 -0.84375 0.15625q-0.40625 0.140625 -0.84375 0.46875q-0.4375 0.3125 -0.9375 0.8125q-0.484375 0.5 -1.046875 1.21875l0 7.5625l-2.0625 0l0 -11.765625zm16.726562 1.6875l-3.484375 0l0 -1.6875l5.546875 0l0 10.0625l3.5 0l0 1.703125l-9.4375 0l0 -1.703125l3.875 0l0 -8.375zm0.703125 -6.625q0.34375 0 0.640625 0.125q0.296875 0.125 0.5 0.34375q0.21875 0.21875 0.34375 0.515625q0.125 0.28125 0.125 0.625q0 0.328125 -0.125 0.625q-0.125 0.28125 -0.34375 0.515625q-0.203125 0.21875 -0.5 0.34375q-0.296875 0.125 -0.640625 0.125q-0.328125 0 -0.625 -0.125q-0.296875 -0.125 -0.515625 -0.34375q-0.21875 -0.234375 -0.34375 -0.515625q-0.109375 -0.296875 -0.109375 -0.625q0 -0.34375 0.109375 -0.625q0.125 -0.296875 0.34375 -0.515625q0.21875 -0.21875 0.515625 -0.34375q0.296875 -0.125 0.625 -0.125zm8.4765625 4.9375l1.8125 0l0.09375 1.890625q0.515625 -0.609375 0.984375 -1.0q0.484375 -0.40625 0.9375 -0.65625q0.46875 -0.25 0.953125 -0.34375q0.484375 -0.109375 1.0 -0.109375q1.8125 0 2.734375 1.078125q0.9375 1.078125 0.9375 3.234375l0 7.671875l-2.03125 0l0 -7.515625q0 -1.375 -0.515625 -2.03125q-0.515625 -0.671875 -1.53125 -0.671875q-0.375 0 -0.734375 0.109375q-0.359375 0.109375 -0.75 0.390625q-0.390625 0.265625 -0.84375 0.734375q-0.4375 0.46875 -1.0 1.171875l0 7.8125l-2.046875 0l0 -11.765625zm22.679688 11.59375q-0.6875 0.1875 -1.4375 0.265625q-0.734375 0.078125 -1.5 0.078125q-2.203125 0 -3.296875 -1.0q-1.09375 -1.015625 -1.09375 -3.09375l0 -6.140625l-3.296875 0l0 -1.703125l3.296875 0l0 -3.234375l2.046875 -0.53125l0 3.765625l5.28125 0l0 1.703125l-5.28125 0l0 5.984375q0 1.265625 0.671875 1.890625q0.671875 0.625 1.984375 0.625q0.5625 0 1.21875 -0.078125q0.671875 -0.09375 1.40625 -0.28125l0 1.75zm14.1484375 -14.484375q-1.59375 -0.34375 -2.765625 -0.34375q-2.75 0 -2.75 2.875l0 2.0625l5.15625 0l0 1.703125l-5.15625 0l0 8.359375l-2.078125 0l0 -8.359375l-3.78125 0l0 -1.703125l3.78125 0l0 -1.9375q0 -4.703125 4.90625 -4.703125q1.21875 0 2.6875 0.28125l0 1.765625zm-12.3125 2.890625l0 0z" fill-rule="nonzero"></path><path fill="#000000" fill-opacity="0.0" d="m443.0866 0l154.99213 0l0 41.952755l-154.99213 0z" fill-rule="evenodd"></path><path fill="#000000" d="m464.3991 12.336506q-1.59375 -0.34375 -2.765625 -0.34375q-2.75 0 -2.75 2.875l0 2.0625l5.15625 0l0 1.703125l-5.15625 0l0 8.359375l-2.078125 0l0 -8.359375l-3.78125 0l0 -1.703125l3.78125 0l0 -1.9375q0 -4.703125 4.90625 -4.703125q1.21875 0 2.6875 0.28125l0 1.765625zm-12.3125 2.890625l0 0zm25.320312 5.78125q0 1.375 -0.390625 2.515625q-0.390625 1.140625 -1.125 1.96875q-0.71875 0.8125 -1.765625 1.265625q-1.03125 0.453125 -2.359375 0.453125q-1.265625 0 -2.265625 -0.390625q-1.0 -0.40625 -1.703125 -1.15625q-0.703125 -0.765625 -1.078125 -1.890625q-0.359375 -1.125 -0.359375 -2.59375q0 -1.375 0.390625 -2.5q0.390625 -1.140625 1.109375 -1.953125q0.734375 -0.8125 1.765625 -1.265625q1.046875 -0.453125 2.375 -0.453125q1.265625 0 2.265625 0.40625q1.0 0.390625 1.6875 1.140625q0.703125 0.75 1.078125 1.875q0.375 1.125 0.375 2.578125zm-2.09375 0.09375q0 -1.078125 -0.25 -1.890625q-0.234375 -0.828125 -0.6875 -1.359375q-0.4375 -0.546875 -1.078125 -0.828125q-0.625 -0.28125 -1.421875 -0.28125q-0.90625 0 -1.5625 0.359375q-0.640625 0.359375 -1.0625 0.96875q-0.421875 0.59375 -0.609375 1.390625q-0.1875 0.78125 -0.1875 1.640625q0 1.09375 0.234375 1.921875q0.234375 0.8125 0.671875 1.359375q0.453125 0.546875 1.078125 0.828125q0.640625 0.265625 1.4375 0.265625q0.921875 0 1.5625 -0.359375q0.65625 -0.359375 1.0625 -0.953125q0.421875 -0.59375 0.609375 -1.375q0.203125 -0.796875 0.203125 -1.6875zm15.2890625 -0.09375q0 1.375 -0.390625 2.515625q-0.390625 1.140625 -1.125 1.96875q-0.71875 0.8125 -1.765625 1.265625q-1.03125 0.453125 -2.359375 0.453125q-1.265625 0 -2.265625 -0.390625q-1.0 -0.40625 -1.703125 -1.15625q-0.703125 -0.765625 -1.078125 -1.890625q-0.359375 -1.125 -0.359375 -2.59375q0 -1.375 0.390625 -2.5q0.390625 -1.140625 1.109375 -1.953125q0.734375 -0.8125 1.765625 -1.265625q1.046875 -0.453125 2.375 -0.453125q1.265625 0 2.265625 0.40625q1.0 0.390625 1.6875 1.140625q0.703125 0.75 1.078125 1.875q0.375 1.125 0.375 2.578125zm-2.09375 0.09375q0 -1.078125 -0.25 -1.890625q-0.234375 -0.828125 -0.6875 -1.359375q-0.4375 -0.546875 -1.078125 -0.828125q-0.625 -0.28125 -1.421875 -0.28125q-0.90625 0 -1.5625 0.359375q-0.640625 0.359375 -1.0625 0.96875q-0.421875 0.59375 -0.609375 1.390625q-0.1875 0.78125 -0.1875 1.640625q0 1.09375 0.234375 1.921875q0.234375 0.8125 0.671875 1.359375q0.453125 0.546875 1.078125 0.828125q0.640625 0.265625 1.4375 0.265625q0.921875 0 1.5625 -0.359375q0.65625 -0.359375 1.0625 -0.953125q0.421875 -0.59375 0.609375 -1.375q0.203125 -0.796875 0.203125 -1.6875zm15.1015625 -0.203125q0 1.46875 -0.40625 2.625q-0.40625 1.140625 -1.15625 1.953125q-0.734375 0.796875 -1.8125 1.234375q-1.0625 0.421875 -2.390625 0.421875q-1.046875 0 -2.140625 -0.203125q-1.09375 -0.203125 -2.15625 -0.625l0 -15.875l2.046875 0l0 4.5625l-0.09375 2.171875q0.875 -1.171875 1.875 -1.65625q1.0 -0.5 2.15625 -0.5q1.0 0 1.765625 0.421875q0.765625 0.421875 1.28125 1.203125q0.515625 0.765625 0.765625 1.84375q0.265625 1.078125 0.265625 2.421875zm-2.09375 0.09375q0 -0.921875 -0.140625 -1.6875q-0.125 -0.78125 -0.421875 -1.328125q-0.296875 -0.5625 -0.75 -0.875q-0.453125 -0.3125 -1.09375 -0.3125q-0.375 0 -0.78125 0.125q-0.390625 0.125 -0.828125 0.421875q-0.421875 0.28125 -0.90625 0.765625q-0.46875 0.46875 -1.0 1.171875l0 5.703125q0.59375 0.234375 1.203125 0.375q0.625 0.125 1.1875 0.125q0.703125 0 1.34375 -0.21875q0.640625 -0.21875 1.125 -0.734375q0.484375 -0.53125 0.765625 -1.390625q0.296875 -0.859375 0.296875 -2.140625zm12.7890625 6.0l-0.046875 -1.578125q-0.96875 0.9375 -1.953125 1.375q-0.984375 0.421875 -2.078125 0.421875q-1.015625 0 -1.734375 -0.265625q-0.703125 -0.265625 -1.171875 -0.703125q-0.453125 -0.453125 -0.671875 -1.0625q-0.21875 -0.609375 -0.21875 -1.328125q0 -1.765625 1.3125 -2.765625q1.328125 -1.015625 3.90625 -1.015625l2.4375 0l0 -1.03125q0 -1.03125 -0.671875 -1.65625q-0.671875 -0.640625 -2.046875 -0.640625q-0.984375 0 -1.953125 0.234375q-0.96875 0.21875 -2.0 0.625l0 -1.84375q0.390625 -0.140625 0.859375 -0.265625q0.46875 -0.140625 1.0 -0.234375q0.53125 -0.109375 1.09375 -0.171875q0.578125 -0.078125 1.171875 -0.078125q1.0625 0 1.921875 0.234375q0.859375 0.234375 1.4375 0.71875q0.59375 0.484375 0.90625 1.21875q0.328125 0.71875 0.328125 1.703125l0 8.109375l-1.828125 0zm-0.21875 -5.359375l-2.59375 0q-0.765625 0 -1.3125 0.15625q-0.546875 0.15625 -0.90625 0.4375q-0.34375 0.28125 -0.515625 0.671875q-0.171875 0.390625 -0.171875 0.875q0 0.34375 0.09375 0.65625q0.109375 0.3125 0.34375 0.5625q0.234375 0.234375 0.609375 0.375q0.375 0.140625 0.921875 0.140625q0.703125 0 1.609375 -0.421875q0.90625 -0.4375 1.921875 -1.359375l0 -2.09375zm6.3359375 -6.40625l1.859375 0l0.0625 2.171875q1.046875 -1.265625 2.046875 -1.828125q1.015625 -0.5625 2.046875 -0.5625q1.828125 0 2.765625 1.1875q0.953125 1.1875 0.890625 3.515625l-2.0625 0q0.03125 -1.546875 -0.453125 -2.234375q-0.484375 -0.703125 -1.421875 -0.703125q-0.421875 0 -0.84375 0.15625q-0.40625 0.140625 -0.84375 0.46875q-0.4375 0.3125 -0.9375 0.8125q-0.484375 0.5 -1.046875 1.21875l0 7.5625l-2.0625 0l0 -11.765625zm17.335938 8.078125q0.40625 0 0.765625 0.15625q0.359375 0.140625 0.609375 0.421875q0.265625 0.265625 0.421875 0.625q0.15625 0.34375 0.15625 0.765625q0 0.390625 -0.15625 0.75q-0.15625 0.34375 -0.421875 0.609375q-0.25 0.265625 -0.609375 0.421875q-0.359375 0.15625 -0.765625 0.15625q-0.40625 0 -0.765625 -0.15625q-0.34375 -0.15625 -0.609375 -0.421875q-0.265625 -0.265625 -0.421875 -0.609375q-0.140625 -0.359375 -0.140625 -0.75q0 -0.421875 0.140625 -0.765625q0.15625 -0.359375 0.421875 -0.625q0.265625 -0.28125 0.609375 -0.421875q0.359375 -0.15625 0.765625 -0.15625zm18.820312 -2.296875q0 1.375 -0.390625 2.515625q-0.390625 1.140625 -1.125 1.96875q-0.71875 0.8125 -1.765625 1.265625q-1.03125 0.453125 -2.359375 0.453125q-1.265625 0 -2.265625 -0.390625q-1.0 -0.40625 -1.703125 -1.15625q-0.703125 -0.765625 -1.078125 -1.890625q-0.359375 -1.125 -0.359375 -2.59375q0 -1.375 0.390625 -2.5q0.390625 -1.140625 1.109375 -1.953125q0.734375 -0.8125 1.765625 -1.265625q1.046875 -0.453125 2.375 -0.453125q1.265625 0 2.265625 0.40625q1.0 0.390625 1.6875 1.140625q0.703125 0.75 1.078125 1.875q0.375 1.125 0.375 2.578125zm-2.09375 0.09375q0 -1.078125 -0.25 -1.890625q-0.234375 -0.828125 -0.6875 -1.359375q-0.4375 -0.546875 -1.078125 -0.828125q-0.625 -0.28125 -1.421875 -0.28125q-0.90625 0 -1.5625 0.359375q-0.640625 0.359375 -1.0625 0.96875q-0.421875 0.59375 -0.609375 1.390625q-0.1875 0.78125 -0.1875 1.640625q0 1.09375 0.234375 1.921875q0.234375 0.8125 0.671875 1.359375q0.453125 0.546875 1.078125 0.828125q0.640625 0.265625 1.4375 0.265625q0.921875 0 1.5625 -0.359375q0.65625 -0.359375 1.0625 -0.953125q0.421875 -0.59375 0.609375 -1.375q0.203125 -0.796875 0.203125 -1.6875z" fill-rule="nonzero"></path><path fill="#000000" fill-opacity="0.0" d="m110.16273 69.937004l139.02362 0l0 88.125984l-139.02362 0z" fill-rule="evenodd"></path><path fill="#000000" d="m152.21361 102.05562q0 1.375 -0.390625 2.515625q-0.390625 1.140625 -1.125 1.96875q-0.71875 0.8125 -1.765625 1.265625q-1.03125 0.453125 -2.359375 0.453125q-1.265625 0 -2.265625 -0.390625q-1.0 -0.40625 -1.703125 -1.15625q-0.703125 -0.765625 -1.078125 -1.890625q-0.359375 -1.125 -0.359375 -2.59375q0 -1.375 0.390625 -2.5q0.390625 -1.140625 1.109375 -1.953125q0.734375 -0.8125 1.765625 -1.265625q1.046875 -0.453125 2.375 -0.453125q1.265625 0 2.265625 0.40625q1.0 0.390625 1.6875 1.140625q0.703125 0.75 1.078125 1.875q0.375 1.125 0.375 2.578125zm-2.09375 0.09375q0 -1.078125 -0.25 -1.890625q-0.234375 -0.828125 -0.6875 -1.359375q-0.4375 -0.546875 -1.078125 -0.828125q-0.625 -0.28125 -1.421875 -0.28125q-0.90625 0 -1.5625 0.359375q-0.640625 0.359375 -1.0625 0.96875q-0.421875 0.59375 -0.609375 1.390625q-0.1875 0.78125 -0.1875 1.640625q0 1.09375 0.234375 1.921875q0.234375 0.8125 0.671875 1.359375q0.453125 0.546875 1.078125 0.828125q0.640625 0.265625 1.4375 0.265625q0.921875 0 1.5625 -0.359375q0.65625 -0.359375 1.0625 -0.953125q0.421875 -0.59375 0.609375 -1.375q0.203125 -0.796875 0.203125 -1.6875zm15.1015625 -0.203125q0 1.46875 -0.40625 2.625q-0.40625 1.140625 -1.15625 1.953125q-0.734375 0.796875 -1.8125 1.234375q-1.0625 0.421875 -2.390625 0.421875q-1.046875 0 -2.140625 -0.203125q-1.09375 -0.203125 -2.15625 -0.625l0 -15.875l2.046875 0l0 4.5625l-0.09375 2.171875q0.875 -1.171875 1.875 -1.65625q1.0 -0.5 2.15625 -0.5q1.0 0 1.765625 0.421875q0.765625 0.421875 1.28125 1.203125q0.515625 0.765625 0.765625 1.84375q0.265625 1.078125 0.265625 2.421875zm-2.09375 0.09375q0 -0.921875 -0.140625 -1.6875q-0.125 -0.78125 -0.421875 -1.328125q-0.296875 -0.5625 -0.75 -0.875q-0.453125 -0.3125 -1.09375 -0.3125q-0.375 0 -0.78125 0.125q-0.390625 0.125 -0.828125 0.421875q-0.421875 0.28125 -0.90625 0.765625q-0.46875 0.46875 -1.0 1.171875l0 5.703125q0.59375 0.234375 1.203125 0.375q0.625 0.125 1.1875 0.125q0.703125 0 1.34375 -0.21875q0.640625 -0.21875 1.125 -0.734375q0.484375 -0.53125 0.765625 -1.390625q0.296875 -0.859375 0.296875 -2.140625zm13.1953125 -5.765625l0 11.546875q0 1.234375 -0.359375 2.1875q-0.34375 0.96875 -1.0 1.625q-0.65625 0.65625 -1.609375 0.984375q-0.953125 0.34375 -2.15625 0.34375q-0.859375 0 -1.6875 -0.15625q-0.828125 -0.15625 -1.5 -0.4375l0 -1.953125q0.375 0.1875 0.78125 0.34375q0.421875 0.15625 0.859375 0.25q0.4375 0.109375 0.875 0.15625q0.453125 0.0625 0.875 0.0625q1.34375 0 2.09375 -0.84375q0.765625 -0.84375 0.765625 -2.484375l0 -9.9375l-5.765625 0l0 -1.6875l7.828125 0zm-1.234375 -4.9375q0.34375 0 0.640625 0.125q0.296875 0.125 0.5 0.34375q0.21875 0.21875 0.34375 0.515625q0.125 0.296875 0.125 0.625q0 0.34375 -0.125 0.625q-0.125 0.28125 -0.34375 0.515625q-0.203125 0.21875 -0.5 0.34375q-0.296875 0.125 -0.640625 0.125q-0.328125 0 -0.625 -0.125q-0.296875 -0.125 -0.515625 -0.34375q-0.21875 -0.234375 -0.34375 -0.515625q-0.109375 -0.28125 -0.109375 -0.625q0 -0.328125 0.109375 -0.625q0.125 -0.296875 0.34375 -0.515625q0.21875 -0.21875 0.515625 -0.34375q0.296875 -0.125 0.625 -0.125zm16.398438 10.203125q0 0.421875 -0.015625 0.71875q0 0.296875 -0.03125 0.546875l-8.265625 0q0 1.8125 1.0 2.78125q1.015625 0.96875 2.921875 0.96875q0.515625 0 1.03125 -0.046875q0.515625 -0.046875 0.984375 -0.109375q0.484375 -0.078125 0.921875 -0.15625q0.453125 -0.09375 0.828125 -0.203125l0 1.6875q-0.84375 0.234375 -1.890625 0.375q-1.046875 0.15625 -2.171875 0.15625q-1.515625 0 -2.609375 -0.40625q-1.078125 -0.421875 -1.78125 -1.203125q-0.6875 -0.78125 -1.03125 -1.90625q-0.328125 -1.140625 -0.328125 -2.5625q0 -1.25 0.359375 -2.34375q0.359375 -1.109375 1.03125 -1.953125q0.6875 -0.84375 1.6875 -1.328125q1.0 -0.5 2.265625 -0.5q1.234375 0 2.171875 0.390625q0.953125 0.390625 1.59375 1.109375q0.65625 0.703125 0.984375 1.71875q0.34375 1.0 0.34375 2.265625zm-2.125 -0.296875q0.046875 -0.78125 -0.140625 -1.4375q-0.1875 -0.65625 -0.59375 -1.125q-0.390625 -0.46875 -0.984375 -0.71875q-0.578125 -0.265625 -1.34375 -0.265625q-0.671875 0 -1.21875 0.265625q-0.546875 0.25 -0.953125 0.71875q-0.390625 0.46875 -0.640625 1.125q-0.25 0.65625 -0.3125 1.4375l6.1875 0zm14.5234375 6.359375q-0.796875 0.3125 -1.640625 0.453125q-0.828125 0.15625 -1.71875 0.15625q-2.796875 0 -4.296875 -1.515625q-1.5 -1.515625 -1.5 -4.421875q0 -1.390625 0.421875 -2.53125q0.4375 -1.140625 1.21875 -1.9375q0.796875 -0.8125 1.875 -1.25q1.09375 -0.453125 2.40625 -0.453125q0.921875 0 1.71875 0.140625q0.796875 0.125 1.515625 0.421875l0 1.9375q-0.765625 -0.390625 -1.5625 -0.578125q-0.78125 -0.1875 -1.625 -0.1875q-0.78125 0 -1.484375 0.3125q-0.6875 0.296875 -1.21875 0.859375q-0.53125 0.5625 -0.84375 1.375q-0.296875 0.796875 -0.296875 1.8125q0 2.140625 1.03125 3.203125q1.046875 1.0625 2.890625 1.0625q0.828125 0 1.609375 -0.1875q0.78125 -0.1875 1.5 -0.5625l0 1.890625zm13.5390625 0.265625q-0.6875 0.1875 -1.4375 0.265625q-0.734375 0.078125 -1.5 0.078125q-2.203125 0 -3.296875 -1.0q-1.09375 -1.015625 -1.09375 -3.09375l0 -6.140625l-3.296875 0l0 -1.703125l3.296875 0l0 -3.234375l2.046875 -0.53125l0 3.765625l5.28125 0l0 1.703125l-5.28125 0l0 5.984375q0 1.265625 0.671875 1.890625q0.671875 0.625 1.984375 0.625q0.5625 0 1.21875 -0.078125q0.671875 -0.09375 1.40625 -0.28125l0 1.75z" fill-rule="nonzero"></path><path fill="#000000" d="m158.99876 122.38374q-1.59375 -0.34375 -2.765625 -0.34375q-2.75 0 -2.75 2.875l0 2.0625l5.15625 0l0 1.703125l-5.15625 0l0 8.359375l-2.078125 0l0 -8.359375l-3.78125 0l0 -1.703125l3.78125 0l0 -1.9375q0 -4.703125 4.90625 -4.703125q1.21875 0 2.6875 0.28125l0 1.765625zm-12.3125 2.890625l0 0zm19.085938 1.6875l-3.484375 0l0 -1.6875l5.546875 0l0 10.0625l3.5 0l0 1.703125l-9.4375 0l0 -1.703125l3.875 0l0 -8.375zm0.703125 -6.625q0.34375 0 0.640625 0.125q0.296875 0.125 0.5 0.34375q0.21875 0.21875 0.34375 0.515625q0.125 0.28125 0.125 0.625q0 0.328125 -0.125 0.625q-0.125 0.28125 -0.34375 0.515625q-0.203125 0.21875 -0.5 0.34375q-0.296875 0.125 -0.640625 0.125q-0.328125 0 -0.625 -0.125q-0.296875 -0.125 -0.515625 -0.34375q-0.21875 -0.234375 -0.34375 -0.515625q-0.109375 -0.296875 -0.109375 -0.625q0 -0.34375 0.109375 -0.625q0.125 -0.296875 0.34375 -0.515625q0.21875 -0.21875 0.515625 -0.34375q0.296875 -0.125 0.625 -0.125zm12.4921875 1.8125l-3.484375 0l0 -1.671875l5.546875 0l0 14.859375l3.5 0l0 1.703125l-9.4375 0l0 -1.703125l3.875 0l0 -13.1875zm19.117188 8.390625q0 0.421875 -0.015625 0.71875q0 0.296875 -0.03125 0.546875l-8.265625 0q0 1.8125 1.0 2.78125q1.015625 0.96875 2.921875 0.96875q0.515625 0 1.03125 -0.046875q0.515625 -0.046875 0.984375 -0.109375q0.484375 -0.078125 0.921875 -0.15625q0.453125 -0.09375 0.828125 -0.203125l0 1.6875q-0.84375 0.234375 -1.890625 0.375q-1.046875 0.15625 -2.171875 0.15625q-1.515625 0 -2.609375 -0.40625q-1.078125 -0.421875 -1.78125 -1.203125q-0.6875 -0.78125 -1.03125 -1.90625q-0.328125 -1.140625 -0.328125 -2.5625q0 -1.25 0.359375 -2.34375q0.359375 -1.109375 1.03125 -1.953125q0.6875 -0.84375 1.6875 -1.328125q1.0 -0.5 2.265625 -0.5q1.234375 0 2.171875 0.390625q0.953125 0.390625 1.59375 1.109375q0.65625 0.703125 0.984375 1.71875q0.34375 1.0 0.34375 2.265625zm-2.125 -0.296875q0.046875 -0.78125 -0.140625 -1.4375q-0.1875 -0.65625 -0.59375 -1.125q-0.390625 -0.46875 -0.984375 -0.71875q-0.578125 -0.265625 -1.34375 -0.265625q-0.671875 0 -1.21875 0.265625q-0.546875 0.25 -0.953125 0.71875q-0.390625 0.46875 -0.640625 1.125q-0.25 0.65625 -0.3125 1.4375l6.1875 0zm14.6953125 3.578125q0 0.625 -0.21875 1.125q-0.203125 0.484375 -0.5625 0.875q-0.359375 0.375 -0.84375 0.640625q-0.484375 0.265625 -1.03125 0.453125q-0.53125 0.171875 -1.109375 0.25q-0.578125 0.09375 -1.125 0.09375q-1.203125 0 -2.203125 -0.109375q-1.0 -0.109375 -1.953125 -0.34375l0 -1.875q1.03125 0.296875 2.046875 0.453125q1.015625 0.140625 2.03125 0.140625q1.453125 0 2.15625 -0.390625q0.703125 -0.40625 0.703125 -1.140625q0 -0.3125 -0.109375 -0.5625q-0.109375 -0.265625 -0.40625 -0.484375q-0.28125 -0.234375 -0.90625 -0.46875q-0.609375 -0.25 -1.671875 -0.578125q-0.796875 -0.234375 -1.484375 -0.53125q-0.671875 -0.296875 -1.171875 -0.703125q-0.484375 -0.40625 -0.765625 -0.953125q-0.28125 -0.5625 -0.28125 -1.3125q0 -0.484375 0.234375 -1.0625q0.234375 -0.59375 0.78125 -1.09375q0.546875 -0.515625 1.484375 -0.84375q0.9375 -0.34375 2.34375 -0.34375q0.6875 0 1.53125 0.078125q0.84375 0.078125 1.765625 0.265625l0 1.8125q-0.96875 -0.234375 -1.828125 -0.34375q-0.859375 -0.109375 -1.484375 -0.109375q-0.765625 0 -1.296875 0.125q-0.515625 0.109375 -0.84375 0.3125q-0.3125 0.203125 -0.453125 0.484375q-0.140625 0.28125 -0.140625 0.59375q0 0.3125 0.125 0.578125q0.125 0.25 0.453125 0.5q0.328125 0.234375 0.921875 0.484375q0.609375 0.234375 1.5625 0.515625q1.046875 0.296875 1.765625 0.640625q0.71875 0.328125 1.15625 0.734375q0.453125 0.40625 0.640625 0.921875q0.1875 0.515625 0.1875 1.171875z" fill-rule="nonzero"></path><path fill="#fce5cd" d="m443.0866 261.23096l154.99213 0l0 144.09451l-154.99213 0z" fill-rule="evenodd"></path><path stroke="#000000" stroke-width="1.0" stroke-linejoin="round" stroke-linecap="butt" d="m443.0866 261.23096l154.99213 0l0 144.09451l-154.99213 0z" fill-rule="evenodd"></path><path fill="#000000" d="m464.2741 284.78696l-4.53125 0l0 13.53125l-2.109375 0l0 -13.53125l-4.53125 0l0 -1.78125l11.171875 0l0 1.78125zm27.40625 18.34375l-13.203125 0l0 -1.6875l13.203125 0l0 1.6875zm11.9296875 -10.90625q0 1.46875 -0.40625 2.625q-0.40625 1.140625 -1.15625 1.953125q-0.734375 0.796875 -1.8125 1.234375q-1.0625 0.421875 -2.390625 0.421875q-1.046875 0 -2.140625 -0.203125q-1.09375 -0.203125 -2.15625 -0.625l0 -15.875l2.046875 0l0 4.5625l-0.09375 2.171875q0.875 -1.171875 1.875 -1.65625q1.0 -0.5 2.15625 -0.5q1.0 0 1.765625 0.421875q0.765625 0.421875 1.28125 1.203125q0.515625 0.765625 0.765625 1.84375q0.265625 1.078125 0.265625 2.421875zm-2.09375 0.09375q0 -0.921875 -0.140625 -1.6875q-0.125 -0.78125 -0.421875 -1.328125q-0.296875 -0.5625 -0.75 -0.875q-0.453125 -0.3125 -1.09375 -0.3125q-0.375 0 -0.78125 0.125q-0.390625 0.125 -0.828125 0.421875q-0.421875 0.28125 -0.90625 0.765625q-0.46875 0.46875 -1.0 1.171875l0 5.703125q0.59375 0.234375 1.203125 0.375q0.625 0.125 1.1875 0.125q0.703125 0 1.34375 -0.21875q0.640625 -0.21875 1.125 -0.734375q0.484375 -0.53125 0.765625 -1.390625q0.296875 -0.859375 0.296875 -2.140625zm12.7890625 6.0l-0.046875 -1.578125q-0.96875 0.9375 -1.953125 1.375q-0.984375 0.421875 -2.078125 0.421875q-1.015625 0 -1.734375 -0.265625q-0.703125 -0.265625 -1.171875 -0.703125q-0.453125 -0.453125 -0.671875 -1.0625q-0.21875 -0.609375 -0.21875 -1.328125q0 -1.765625 1.3125 -2.765625q1.328125 -1.015625 3.90625 -1.015625l2.4375 0l0 -1.03125q0 -1.03125 -0.671875 -1.65625q-0.671875 -0.640625 -2.046875 -0.640625q-0.984375 0 -1.953125 0.234375q-0.96875 0.21875 -2.0 0.625l0 -1.84375q0.390625 -0.140625 0.859375 -0.265625q0.46875 -0.140625 1.0 -0.234375q0.53125 -0.109375 1.09375 -0.171875q0.578125 -0.078125 1.171875 -0.078125q1.0625 0 1.921875 0.234375q0.859375 0.234375 1.4375 0.71875q0.59375 0.484375 0.90625 1.21875q0.328125 0.71875 0.328125 1.703125l0 8.109375l-1.828125 0zm-0.21875 -5.359375l-2.59375 0q-0.765625 0 -1.3125 0.15625q-0.546875 0.15625 -0.90625 0.4375q-0.34375 0.28125 -0.515625 0.671875q-0.171875 0.390625 -0.171875 0.875q0 0.34375 0.09375 0.65625q0.109375 0.3125 0.34375 0.5625q0.234375 0.234375 0.609375 0.375q0.375 0.140625 0.921875 0.140625q0.703125 0 1.609375 -0.421875q0.90625 -0.4375 1.921875 -1.359375l0 -2.09375zm6.3359375 -6.40625l1.859375 0l0.0625 2.171875q1.046875 -1.265625 2.046875 -1.828125q1.015625 -0.5625 2.046875 -0.5625q1.828125 0 2.765625 1.1875q0.953125 1.1875 0.890625 3.515625l-2.0625 0q0.03125 -1.546875 -0.453125 -2.234375q-0.484375 -0.703125 -1.421875 -0.703125q-0.421875 0 -0.84375 0.15625q-0.40625 0.140625 -0.84375 0.46875q-0.4375 0.3125 -0.9375 0.8125q-0.484375 0.5 -1.046875 1.21875l0 7.5625l-2.0625 0l0 -11.765625z" fill-rule="nonzero"></path><path fill="#000000" d="m464.2741 313.78696l-4.53125 0l0 13.53125l-2.109375 0l0 -13.53125l-4.53125 0l0 -1.78125l11.171875 0l0 1.78125zm27.40625 18.34375l-13.203125 0l0 -1.6875l13.203125 0l0 1.6875zm12.3046875 -19.46875q-1.59375 -0.34375 -2.765625 -0.34375q-2.75 0 -2.75 2.875l0 2.0625l5.15625 0l0 1.703125l-5.15625 0l0 8.359375l-2.078125 0l0 -8.359375l-3.78125 0l0 -1.703125l3.78125 0l0 -1.9375q0 -4.703125 4.90625 -4.703125q1.21875 0 2.6875 0.28125l0 1.765625zm-12.3125 2.890625l0 0zm25.320312 5.78125q0 1.375 -0.390625 2.515625q-0.390625 1.140625 -1.125 1.96875q-0.71875 0.8125 -1.765625 1.265625q-1.03125 0.453125 -2.359375 0.453125q-1.265625 0 -2.265625 -0.390625q-1.0 -0.40625 -1.703125 -1.15625q-0.703125 -0.765625 -1.078125 -1.890625q-0.359375 -1.125 -0.359375 -2.59375q0 -1.375 0.390625 -2.5q0.390625 -1.140625 1.109375 -1.953125q0.734375 -0.8125 1.765625 -1.265625q1.046875 -0.453125 2.375 -0.453125q1.265625 0 2.265625 0.40625q1.0 0.390625 1.6875 1.140625q0.703125 0.75 1.078125 1.875q0.375 1.125 0.375 2.578125zm-2.09375 0.09375q0 -1.078125 -0.25 -1.890625q-0.234375 -0.828125 -0.6875 -1.359375q-0.4375 -0.546875 -1.078125 -0.828125q-0.625 -0.28125 -1.421875 -0.28125q-0.90625 0 -1.5625 0.359375q-0.640625 0.359375 -1.0625 0.96875q-0.421875 0.59375 -0.609375 1.390625q-0.1875 0.78125 -0.1875 1.640625q0 1.09375 0.234375 1.921875q0.234375 0.8125 0.671875 1.359375q0.453125 0.546875 1.078125 0.828125q0.640625 0.265625 1.4375 0.265625q0.921875 0 1.5625 -0.359375q0.65625 -0.359375 1.0625 -0.953125q0.421875 -0.59375 0.609375 -1.375q0.203125 -0.796875 0.203125 -1.6875zm15.2890625 -0.09375q0 1.375 -0.390625 2.515625q-0.390625 1.140625 -1.125 1.96875q-0.71875 0.8125 -1.765625 1.265625q-1.03125 0.453125 -2.359375 0.453125q-1.265625 0 -2.265625 -0.390625q-1.0 -0.40625 -1.703125 -1.15625q-0.703125 -0.765625 -1.078125 -1.890625q-0.359375 -1.125 -0.359375 -2.59375q0 -1.375 0.390625 -2.5q0.390625 -1.140625 1.109375 -1.953125q0.734375 -0.8125 1.765625 -1.265625q1.046875 -0.453125 2.375 -0.453125q1.265625 0 2.265625 0.40625q1.0 0.390625 1.6875 1.140625q0.703125 0.75 1.078125 1.875q0.375 1.125 0.375 2.578125zm-2.09375 0.09375q0 -1.078125 -0.25 -1.890625q-0.234375 -0.828125 -0.6875 -1.359375q-0.4375 -0.546875 -1.078125 -0.828125q-0.625 -0.28125 -1.421875 -0.28125q-0.90625 0 -1.5625 0.359375q-0.640625 0.359375 -1.0625 0.96875q-0.421875 0.59375 -0.609375 1.390625q-0.1875 0.78125 -0.1875 1.640625q0 1.09375 0.234375 1.921875q0.234375 0.8125 0.671875 1.359375q0.453125 0.546875 1.078125 0.828125q0.640625 0.265625 1.4375 0.265625q0.921875 0 1.5625 -0.359375q0.65625 -0.359375 1.0625 -0.953125q0.421875 -0.59375 0.609375 -1.375q0.203125 -0.796875 0.203125 -1.6875z" fill-rule="nonzero"></path><path fill="#000000" d="m464.2741 342.78696l-4.53125 0l0 13.53125l-2.109375 0l0 -13.53125l-4.53125 0l0 -1.78125l11.171875 0l0 1.78125zm27.40625 18.34375l-13.203125 0l0 -1.6875l13.203125 0l0 1.6875zm10.2578125 -4.8125l0 -8.453125q0 -0.546875 -0.046875 -0.890625q-0.03125 -0.359375 -0.125 -0.5625q-0.078125 -0.203125 -0.21875 -0.28125q-0.140625 -0.09375 -0.328125 -0.09375q-0.234375 0 -0.4375 0.140625q-0.203125 0.140625 -0.4375 0.46875q-0.21875 0.3125 -0.5 0.828125q-0.265625 0.515625 -0.640625 1.28125l0 7.5625l-1.875 0l0 -8.234375q0 -0.640625 -0.046875 -1.03125q-0.03125 -0.40625 -0.125 -0.625q-0.078125 -0.21875 -0.21875 -0.296875q-0.140625 -0.09375 -0.34375 -0.09375q-0.203125 0 -0.390625 0.125q-0.1875 0.109375 -0.421875 0.421875q-0.234375 0.296875 -0.515625 0.828125q-0.28125 0.53125 -0.65625 1.34375l0 7.5625l-1.875 0l0 -11.765625l1.546875 0l0.09375 2.234375q0.3125 -0.671875 0.59375 -1.140625q0.296875 -0.46875 0.59375 -0.75q0.3125 -0.28125 0.65625 -0.421875q0.34375 -0.140625 0.765625 -0.140625q0.953125 0 1.4375 0.625q0.5 0.625 0.5 1.921875q0.28125 -0.609375 0.546875 -1.078125q0.265625 -0.484375 0.578125 -0.796875q0.3125 -0.328125 0.6875 -0.5q0.375 -0.171875 0.859375 -0.171875q2.21875 0 2.21875 3.421875l0 8.5625l-1.875 0zm12.3671875 0l-0.046875 -1.578125q-0.96875 0.9375 -1.953125 1.375q-0.984375 0.421875 -2.078125 0.421875q-1.015625 0 -1.734375 -0.265625q-0.703125 -0.265625 -1.171875 -0.703125q-0.453125 -0.453125 -0.671875 -1.0625q-0.21875 -0.609375 -0.21875 -1.328125q0 -1.765625 1.3125 -2.765625q1.328125 -1.015625 3.90625 -1.015625l2.4375 0l0 -1.03125q0 -1.03125 -0.671875 -1.65625q-0.671875 -0.640625 -2.046875 -0.640625q-0.984375 0 -1.953125 0.234375q-0.96875 0.21875 -2.0 0.625l0 -1.84375q0.390625 -0.140625 0.859375 -0.265625q0.46875 -0.140625 1.0 -0.234375q0.53125 -0.109375 1.09375 -0.171875q0.578125 -0.078125 1.171875 -0.078125q1.0625 0 1.921875 0.234375q0.859375 0.234375 1.4375 0.71875q0.59375 0.484375 0.90625 1.21875q0.328125 0.71875 0.328125 1.703125l0 8.109375l-1.828125 0zm-0.21875 -5.359375l-2.59375 0q-0.765625 0 -1.3125 0.15625q-0.546875 0.15625 -0.90625 0.4375q-0.34375 0.28125 -0.515625 0.671875q-0.171875 0.390625 -0.171875 0.875q0 0.34375 0.09375 0.65625q0.109375 0.3125 0.34375 0.5625q0.234375 0.234375 0.609375 0.375q0.375 0.140625 0.921875 0.140625q0.703125 0 1.609375 -0.421875q0.90625 -0.4375 1.921875 -1.359375l0 -2.09375zm9.8671875 -4.71875l-3.484375 0l0 -1.6875l5.546875 0l0 10.0625l3.5 0l0 1.703125l-9.4375 0l0 -1.703125l3.875 0l0 -8.375zm0.703125 -6.625q0.34375 0 0.640625 0.125q0.296875 0.125 0.5 0.34375q0.21875 0.21875 0.34375 0.515625q0.125 0.28125 0.125 0.625q0 0.328125 -0.125 0.625q-0.125 0.28125 -0.34375 0.515625q-0.203125 0.21875 -0.5 0.34375q-0.296875 0.125 -0.640625 0.125q-0.328125 0 -0.625 -0.125q-0.296875 -0.125 -0.515625 -0.34375q-0.21875 -0.234375 -0.34375 -0.515625q-0.109375 -0.296875 -0.109375 -0.625q0 -0.34375 0.109375 -0.625q0.125 -0.296875 0.34375 -0.515625q0.21875 -0.21875 0.515625 -0.34375q0.296875 -0.125 0.625 -0.125zm8.4765625 4.9375l1.8125 0l0.09375 1.890625q0.515625 -0.609375 0.984375 -1.0q0.484375 -0.40625 0.9375 -0.65625q0.46875 -0.25 0.953125 -0.34375q0.484375 -0.109375 1.0 -0.109375q1.8125 0 2.734375 1.078125q0.9375 1.078125 0.9375 3.234375l0 7.671875l-2.03125 0l0 -7.515625q0 -1.375 -0.515625 -2.03125q-0.515625 -0.671875 -1.53125 -0.671875q-0.375 0 -0.734375 0.109375q-0.359375 0.109375 -0.75 0.390625q-0.390625 0.265625 -0.84375 0.734375q-0.4375 0.46875 -1.0 1.171875l0 7.8125l-2.046875 0l0 -11.765625z" fill-rule="nonzero"></path><path fill="#000000" d="m464.0241 379.99008q0 1.265625 -0.359375 2.296875q-0.359375 1.015625 -1.0625 1.734375q-0.6875 0.71875 -1.6875 1.125q-1.0 0.390625 -2.296875 0.390625q-1.4375 0 -2.4375 -0.375q-0.984375 -0.390625 -1.609375 -1.0625q-0.625 -0.6875 -0.921875 -1.640625q-0.28125 -0.96875 -0.28125 -2.15625l0 -10.296875l2.078125 0l0 10.125q0 0.90625 0.171875 1.59375q0.171875 0.671875 0.5625 1.140625q0.390625 0.453125 1.0 0.6875q0.609375 0.234375 1.5 0.234375q1.671875 0 2.453125 -0.953125q0.796875 -0.96875 0.796875 -2.71875l0 -10.109375l2.09375 0l0 9.984375zm27.65625 10.140625l-13.203125 0l0 -1.6875l13.203125 0l0 1.6875zm11.9296875 -10.90625q0 1.5625 -0.453125 2.734375q-0.4375 1.171875 -1.21875 1.953125q-0.765625 0.765625 -1.828125 1.15625q-1.046875 0.390625 -2.265625 0.390625q-0.5625 0 -1.125 -0.0625q-0.5625 -0.046875 -1.125 -0.203125l0 4.9375l-2.046875 0l0 -16.578125l1.8125 0l0.140625 1.96875q0.875 -1.203125 1.859375 -1.6875q1.0 -0.5 2.171875 -0.5q1.0 0 1.765625 0.421875q0.765625 0.421875 1.28125 1.203125q0.515625 0.765625 0.765625 1.84375q0.265625 1.078125 0.265625 2.421875zm-2.09375 0.09375q0 -0.921875 -0.140625 -1.6875q-0.125 -0.78125 -0.421875 -1.328125q-0.296875 -0.5625 -0.75 -0.875q-0.453125 -0.3125 -1.09375 -0.3125q-0.375 0 -0.78125 0.125q-0.390625 0.125 -0.828125 0.421875q-0.421875 0.28125 -0.90625 0.765625q-0.46875 0.46875 -1.0 1.171875l0 5.703125q0.5625 0.234375 1.171875 0.375q0.625 0.125 1.21875 0.125q1.65625 0 2.59375 -1.109375q0.9375 -1.125 0.9375 -3.375zm5.7109375 -5.765625l1.859375 0l0.0625 2.171875q1.046875 -1.265625 2.046875 -1.828125q1.015625 -0.5625 2.046875 -0.5625q1.828125 0 2.765625 1.1875q0.953125 1.1875 0.890625 3.515625l-2.0625 0q0.03125 -1.546875 -0.453125 -2.234375q-0.484375 -0.703125 -1.421875 -0.703125q-0.421875 0 -0.84375 0.15625q-0.40625 0.140625 -0.84375 0.46875q-0.4375 0.3125 -0.9375 0.8125q-0.484375 0.5 -1.046875 1.21875l0 7.5625l-2.0625 0l0 -11.765625zm16.726562 1.6875l-3.484375 0l0 -1.6875l5.546875 0l0 10.0625l3.5 0l0 1.703125l-9.4375 0l0 -1.703125l3.875 0l0 -8.375zm0.703125 -6.625q0.34375 0 0.640625 0.125q0.296875 0.125 0.5 0.34375q0.21875 0.21875 0.34375 0.515625q0.125 0.28125 0.125 0.625q0 0.328125 -0.125 0.625q-0.125 0.28125 -0.34375 0.515625q-0.203125 0.21875 -0.5 0.34375q-0.296875 0.125 -0.640625 0.125q-0.328125 0 -0.625 -0.125q-0.296875 -0.125 -0.515625 -0.34375q-0.21875 -0.234375 -0.34375 -0.515625q-0.109375 -0.296875 -0.109375 -0.625q0 -0.34375 0.109375 -0.625q0.125 -0.296875 0.34375 -0.515625q0.21875 -0.21875 0.515625 -0.34375q0.296875 -0.125 0.625 -0.125zm8.4765625 4.9375l1.8125 0l0.09375 1.890625q0.515625 -0.609375 0.984375 -1.0q0.484375 -0.40625 0.9375 -0.65625q0.46875 -0.25 0.953125 -0.34375q0.484375 -0.109375 1.0 -0.109375q1.8125 0 2.734375 1.078125q0.9375 1.078125 0.9375 3.234375l0 7.671875l-2.03125 0l0 -7.515625q0 -1.375 -0.515625 -2.03125q-0.515625 -0.671875 -1.53125 -0.671875q-0.375 0 -0.734375 0.109375q-0.359375 0.109375 -0.75 0.390625q-0.390625 0.265625 -0.84375 0.734375q-0.4375 0.46875 -1.0 1.171875l0 7.8125l-2.046875 0l0 -11.765625zm22.679688 11.59375q-0.6875 0.1875 -1.4375 0.265625q-0.734375 0.078125 -1.5 0.078125q-2.203125 0 -3.296875 -1.0q-1.09375 -1.015625 -1.09375 -3.09375l0 -6.140625l-3.296875 0l0 -1.703125l3.296875 0l0 -3.234375l2.046875 -0.53125l0 3.765625l5.28125 0l0 1.703125l-5.28125 0l0 5.984375q0 1.265625 0.671875 1.890625q0.671875 0.625 1.984375 0.625q0.5625 0 1.21875 -0.078125q0.671875 -0.09375 1.40625 -0.28125l0 1.75zm14.1484375 -14.484375q-1.59375 -0.34375 -2.765625 -0.34375q-2.75 0 -2.75 2.875l0 2.0625l5.15625 0l0 1.703125l-5.15625 0l0 8.359375l-2.078125 0l0 -8.359375l-3.78125 0l0 -1.703125l3.78125 0l0 -1.9375q0 -4.703125 4.90625 -4.703125q1.21875 0 2.6875 0.28125l0 1.765625zm-12.3125 2.890625l0 0z" fill-rule="nonzero"></path><path fill="#000000" fill-opacity="0.0" d="m443.0866 405.32547l154.99213 0l0 41.95276l-154.99213 0z" fill-rule="evenodd"></path><path fill="#000000" d="m462.35223 432.3182l0 -8.453125q0 -0.546875 -0.046875 -0.890625q-0.03125 -0.359375 -0.125 -0.5625q-0.078125 -0.203125 -0.21875 -0.28125q-0.140625 -0.09375 -0.328125 -0.09375q-0.234375 0 -0.4375 0.140625q-0.203125 0.140625 -0.4375 0.46875q-0.21875 0.3125 -0.5 0.828125q-0.265625 0.515625 -0.640625 1.28125l0 7.5625l-1.875 0l0 -8.234375q0 -0.640625 -0.046875 -1.03125q-0.03125 -0.40625 -0.125 -0.625q-0.078125 -0.21875 -0.21875 -0.296875q-0.140625 -0.09375 -0.34375 -0.09375q-0.203125 0 -0.390625 0.125q-0.1875 0.109375 -0.421875 0.421875q-0.234375 0.296875 -0.515625 0.828125q-0.28125 0.53125 -0.65625 1.34375l0 7.5625l-1.875 0l0 -11.765625l1.546875 0l0.09375 2.234375q0.3125 -0.671875 0.59375 -1.140625q0.296875 -0.46875 0.59375 -0.75q0.3125 -0.28125 0.65625 -0.421875q0.34375 -0.140625 0.765625 -0.140625q0.953125 0 1.4375 0.625q0.5 0.625 0.5 1.921875q0.28125 -0.609375 0.546875 -1.078125q0.265625 -0.484375 0.578125 -0.796875q0.3125 -0.328125 0.6875 -0.5q0.375 -0.171875 0.859375 -0.171875q2.21875 0 2.21875 3.421875l0 8.5625l-1.875 0zm12.3671875 0l-0.046875 -1.578125q-0.96875 0.9375 -1.953125 1.375q-0.984375 0.421875 -2.078125 0.421875q-1.015625 0 -1.734375 -0.265625q-0.703125 -0.265625 -1.171875 -0.703125q-0.453125 -0.453125 -0.671875 -1.0625q-0.21875 -0.609375 -0.21875 -1.328125q0 -1.765625 1.3125 -2.765625q1.328125 -1.015625 3.90625 -1.015625l2.4375 0l0 -1.03125q0 -1.03125 -0.671875 -1.65625q-0.671875 -0.640625 -2.046875 -0.640625q-0.984375 0 -1.953125 0.234375q-0.96875 0.21875 -2.0 0.625l0 -1.84375q0.390625 -0.140625 0.859375 -0.265625q0.46875 -0.140625 1.0 -0.234375q0.53125 -0.109375 1.09375 -0.171875q0.578125 -0.078125 1.171875 -0.078125q1.0625 0 1.921875 0.234375q0.859375 0.234375 1.4375 0.71875q0.59375 0.484375 0.90625 1.21875q0.328125 0.71875 0.328125 1.703125l0 8.109375l-1.828125 0zm-0.21875 -5.359375l-2.59375 0q-0.765625 0 -1.3125 0.15625q-0.546875 0.15625 -0.90625 0.4375q-0.34375 0.28125 -0.515625 0.671875q-0.171875 0.390625 -0.171875 0.875q0 0.34375 0.09375 0.65625q0.109375 0.3125 0.34375 0.5625q0.234375 0.234375 0.609375 0.375q0.375 0.140625 0.921875 0.140625q0.703125 0 1.609375 -0.421875q0.90625 -0.4375 1.921875 -1.359375l0 -2.09375zm9.8671875 -4.71875l-3.484375 0l0 -1.6875l5.546875 0l0 10.0625l3.5 0l0 1.703125l-9.4375 0l0 -1.703125l3.875 0l0 -8.375zm0.703125 -6.625q0.34375 0 0.640625 0.125q0.296875 0.125 0.5 0.34375q0.21875 0.21875 0.34375 0.515625q0.125 0.28125 0.125 0.625q0 0.328125 -0.125 0.625q-0.125 0.28125 -0.34375 0.515625q-0.203125 0.21875 -0.5 0.34375q-0.296875 0.125 -0.640625 0.125q-0.328125 0 -0.625 -0.125q-0.296875 -0.125 -0.515625 -0.34375q-0.21875 -0.234375 -0.34375 -0.515625q-0.109375 -0.296875 -0.109375 -0.625q0 -0.34375 0.109375 -0.625q0.125 -0.296875 0.34375 -0.515625q0.21875 -0.21875 0.515625 -0.34375q0.296875 -0.125 0.625 -0.125zm8.4765625 4.9375l1.8125 0l0.09375 1.890625q0.515625 -0.609375 0.984375 -1.0q0.484375 -0.40625 0.9375 -0.65625q0.46875 -0.25 0.953125 -0.34375q0.484375 -0.109375 1.0 -0.109375q1.8125 0 2.734375 1.078125q0.9375 1.078125 0.9375 3.234375l0 7.671875l-2.03125 0l0 -7.515625q0 -1.375 -0.515625 -2.03125q-0.515625 -0.671875 -1.53125 -0.671875q-0.375 0 -0.734375 0.109375q-0.359375 0.109375 -0.75 0.390625q-0.390625 0.265625 -0.84375 0.734375q-0.4375 0.46875 -1.0 1.171875l0 7.8125l-2.046875 0l0 -11.765625z" fill-rule="nonzero"></path><path fill="#000000" fill-opacity="0.0" d="m333.021 186.04724l0 37.592056l187.55908 0l0 37.589035" fill-rule="evenodd"></path><path stroke="#000000" stroke-width="3.0" stroke-linejoin="round" stroke-linecap="butt" d="m333.021 186.04724l0 37.592056l187.55908 0l0 37.589035" fill-rule="evenodd"></path><path fill="#000000" fill-opacity="0.0" d="m520.5827 186.04724l0 37.592056l0.06298828 0l0 37.589035" fill-rule="evenodd"></path><path stroke="#000000" stroke-width="3.0" stroke-linejoin="round" stroke-linecap="butt" d="m520.5827 186.04724l0 37.592056l0.06298828 0l0 19.58905" fill-rule="evenodd"></path><path fill="#000000" stroke="#000000" stroke-width="3.0" stroke-linecap="butt" d="m515.6905 243.22835l4.9552 13.614304l4.9552 -13.614304z" fill-rule="evenodd"></path><path fill="#000000" fill-opacity="0.0" d="m0 221.88452l431.46457 0l0 88.12598l-431.46457 0z" fill-rule="evenodd"></path><path fill="#000000" d="m21.078125 249.62764l-2.625 0l-0.421875 4.296875l-1.734375 0l0.421875 -4.296875l-2.984375 0l-0.4375 4.296875l-1.734375 0l0.4375 -4.296875l-2.5 0l0 -1.53125l2.65625 0l0.421875 -4.09375l-2.46875 0l0 -1.53125l2.625 0l0.390625 -3.859375l1.71875 0l-0.390625 3.859375l3.0 0l0.390625 -3.859375l1.734375 0l-0.40625 3.859375l2.515625 0l0 1.53125l-2.671875 0l-0.40625 4.09375l2.46875 0l0 1.53125zm-4.1875 -1.53125l0.40625 -4.09375l-3.0 0l-0.40625 4.09375l3.0 0zm24.390625 -9.0625l-3.484375 0l0 -1.671875l5.546875 0l0 14.859375l3.5 0l0 1.703125l-9.4375 0l0 -1.703125l3.875 0l0 -13.1875zm13.1953125 4.8125l-3.484375 0l0 -1.6875l5.546875 0l0 10.0625l3.5 0l0 1.703125l-9.4375 0l0 -1.703125l3.875 0l0 -8.375zm0.703125 -6.625q0.34375 0 0.640625 0.125q0.296875 0.125 0.5 0.34375q0.21875 0.21875 0.34375 0.515625q0.125 0.28125 0.125 0.625q0 0.328125 -0.125 0.625q-0.125 0.28125 -0.34375 0.515625q-0.203125 0.21875 -0.5 0.34375q-0.296875 0.125 -0.640625 0.125q-0.328125 0 -0.625 -0.125q-0.296875 -0.125 -0.515625 -0.34375q-0.21875 -0.234375 -0.34375 -0.515625q-0.109375 -0.296875 -0.109375 -0.625q0 -0.34375 0.109375 -0.625q0.125 -0.296875 0.34375 -0.515625q0.21875 -0.21875 0.515625 -0.34375q0.296875 -0.125 0.625 -0.125zm8.4765625 4.9375l1.8125 0l0.09375 1.890625q0.515625 -0.609375 0.984375 -1.0q0.484375 -0.40625 0.9375 -0.65625q0.46875 -0.25 0.953125 -0.34375q0.484375 -0.109375 1.0 -0.109375q1.8125 0 2.734375 1.078125q0.9375 1.078125 0.9375 3.234375l0 7.671875l-2.03125 0l0 -7.515625q0 -1.375 -0.515625 -2.03125q-0.515625 -0.671875 -1.53125 -0.671875q-0.375 0 -0.734375 0.109375q-0.359375 0.109375 -0.75 0.390625q-0.390625 0.265625 -0.84375 0.734375q-0.4375 0.46875 -1.0 1.171875l0 7.8125l-2.046875 0l0 -11.765625zm23.773438 11.765625l-2.796875 0l-5.484375 -6.3125l0 6.3125l-2.03125 0l0 -16.5625l2.03125 0l0 10.171875l5.28125 -5.375l2.703125 0l-5.515625 5.421875l5.8125 6.34375zm6.6328125 -10.078125l-3.484375 0l0 -1.6875l5.546875 0l0 10.0625l3.5 0l0 1.703125l-9.4375 0l0 -1.703125l3.875 0l0 -8.375zm0.703125 -6.625q0.34375 0 0.640625 0.125q0.296875 0.125 0.5 0.34375q0.21875 0.21875 0.34375 0.515625q0.125 0.28125 0.125 0.625q0 0.328125 -0.125 0.625q-0.125 0.28125 -0.34375 0.515625q-0.203125 0.21875 -0.5 0.34375q-0.296875 0.125 -0.640625 0.125q-0.328125 0 -0.625 -0.125q-0.296875 -0.125 -0.515625 -0.34375q-0.21875 -0.234375 -0.34375 -0.515625q-0.109375 -0.296875 -0.109375 -0.625q0 -0.34375 0.109375 -0.625q0.125 -0.296875 0.34375 -0.515625q0.21875 -0.21875 0.515625 -0.34375q0.296875 -0.125 0.625 -0.125zm8.4765625 4.9375l1.8125 0l0.09375 1.890625q0.515625 -0.609375 0.984375 -1.0q0.484375 -0.40625 0.9375 -0.65625q0.46875 -0.25 0.953125 -0.34375q0.484375 -0.109375 1.0 -0.109375q1.8125 0 2.734375 1.078125q0.9375 1.078125 0.9375 3.234375l0 7.671875l-2.03125 0l0 -7.515625q0 -1.375 -0.515625 -2.03125q-0.515625 -0.671875 -1.53125 -0.671875q-0.375 0 -0.734375 0.109375q-0.359375 0.109375 -0.75 0.390625q-0.390625 0.265625 -0.84375 0.734375q-0.4375 0.46875 -1.0 1.171875l0 7.8125l-2.046875 0l0 -11.765625zm21.664062 1.65625q0.328125 0.421875 0.515625 0.96875q0.1875 0.53125 0.1875 1.171875q0 0.90625 -0.34375 1.671875q-0.328125 0.75 -0.9375 1.296875q-0.609375 0.53125 -1.46875 0.828125q-0.84375 0.296875 -1.859375 0.296875q-0.734375 0 -1.390625 -0.15625q-0.640625 -0.15625 -1.015625 -0.390625q-0.21875 0.328125 -0.375 0.625q-0.15625 0.296875 -0.15625 0.65625q0 0.4375 0.421875 0.734375q0.4375 0.296875 1.140625 0.3125l3.09375 0.125q0.875 0.015625 1.625 0.21875q0.75 0.203125 1.28125 0.578125q0.53125 0.375 0.828125 0.9375q0.296875 0.546875 0.296875 1.265625q0 0.78125 -0.34375 1.4843903q-0.328125 0.703125 -1.046875 1.234375q-0.703125 0.546875 -1.796875 0.859375q-1.09375 0.3125 -2.59375 0.3125q-1.421875 0 -2.421875 -0.234375q-1.0 -0.21875 -1.65625 -0.625q-0.640625 -0.40625 -0.9375 -0.96875q-0.28125 -0.546875 -0.28125 -1.2187653q0 -0.859375 0.390625 -1.5q0.40625 -0.640625 1.234375 -1.25q-0.3125 -0.140625 -0.53125 -0.34375q-0.21875 -0.21875 -0.359375 -0.46875q-0.140625 -0.25 -0.21875 -0.53125q-0.0625 -0.28125 -0.0625 -0.546875q0 -0.765625 0.359375 -1.390625q0.359375 -0.640625 0.84375 -1.203125q-0.21875 -0.265625 -0.390625 -0.515625q-0.171875 -0.265625 -0.296875 -0.5625q-0.125 -0.296875 -0.1875 -0.640625q-0.0625 -0.359375 -0.0625 -0.796875q0 -0.921875 0.328125 -1.671875q0.34375 -0.75 0.9375 -1.28125q0.609375 -0.546875 1.453125 -0.84375q0.859375 -0.3125 1.890625 -0.3125q0.4375 0 0.828125 0.0625q0.40625 0.0625 0.703125 0.15625l4.265625 0l0 1.65625l-1.890625 0zm-7.078125 11.8125q0 0.82814026 0.859375 1.2031403q0.875 0.390625 2.421875 0.390625q0.984375 0 1.640625 -0.1875q0.65625 -0.171875 1.0625 -0.453125q0.40625 -0.28125 0.578125 -0.65626526q0.1875 -0.375 0.1875 -0.75q0 -0.71875 -0.59375 -1.0625q-0.578125 -0.34375 -1.796875 -0.40625l-3.0625 -0.09375q-0.390625 0.25 -0.640625 0.5q-0.25 0.25 -0.390625 0.5q-0.140625 0.25 -0.203125 0.5q-0.0625 0.25 -0.0625 0.515625zm0.625 -9.625q0 0.5625 0.1875 1.03125q0.1875 0.46875 0.53125 0.796875q0.34375 0.328125 0.796875 0.515625q0.46875 0.171875 1.03125 0.171875q0.609375 0 1.078125 -0.203125q0.484375 -0.203125 0.796875 -0.546875q0.328125 -0.359375 0.5 -0.8125q0.171875 -0.46875 0.171875 -0.953125q0 -0.5625 -0.1875 -1.03125q-0.1875 -0.46875 -0.53125 -0.796875q-0.34375 -0.328125 -0.8125 -0.5q-0.453125 -0.1875 -1.015625 -0.1875q-0.609375 0 -1.09375 0.21875q-0.46875 0.203125 -0.796875 0.546875q-0.3125 0.34375 -0.484375 0.796875q-0.171875 0.453125 -0.171875 0.953125z" fill-rule="nonzero"></path><path fill="#000000" d="m15.9375 265.4089l1.703125 0l-0.3125 2.28125q0.609375 0.0625 1.21875 0.15625q0.625 0.09375 1.15625 0.21875l0 1.796875q-0.640625 -0.15625 -1.296875 -0.265625q-0.65625 -0.125 -1.296875 -0.1875l-0.671875 5.015625q0.796875 0.3125 1.5625 0.671875q0.78125 0.34375 1.390625 0.84375q0.609375 0.484375 0.984375 1.15625q0.390625 0.65625 0.390625 1.578125q0 0.984375 -0.40625 1.75q-0.390625 0.765625 -1.109375 1.296875q-0.703125 0.515625 -1.71875 0.828125q-1.0 0.296875 -2.21875 0.34375l-0.375 2.796875l-1.71875 0l0.390625 -2.796875q-0.953125 -0.0625 -1.8125 -0.1875q-0.859375 -0.140625 -1.5 -0.3125l0 -1.9375q0.75 0.25 1.609375 0.421875q0.875 0.15625 1.953125 0.21875l0.6875 -5.28125q-0.765625 -0.28125 -1.5 -0.625q-0.734375 -0.34375 -1.328125 -0.8125q-0.578125 -0.484375 -0.9375 -1.125q-0.359375 -0.640625 -0.359375 -1.53125q0 -0.734375 0.296875 -1.4375q0.3125 -0.703125 0.953125 -1.265625q0.640625 -0.578125 1.625 -0.9375q0.984375 -0.375 2.34375 -0.453125l0.296875 -2.21875zm-0.53125 3.984375q-1.453125 0.125 -2.140625 0.6875q-0.671875 0.546875 -0.671875 1.421875q0 0.796875 0.5625 1.328125q0.5625 0.515625 1.65625 0.953125l0.59375 -4.390625zm0.140625 11.703125q1.59375 -0.125 2.3125 -0.703125q0.71875 -0.59375 0.71875 -1.59375q0 -0.421875 -0.15625 -0.75q-0.15625 -0.34375 -0.46875 -0.609375q-0.296875 -0.265625 -0.75 -0.5q-0.4375 -0.234375 -1.046875 -0.46875l-0.609375 4.625zm30.859375 1.390625q-0.796875 0.3125 -1.640625 0.453125q-0.828125 0.15625 -1.71875 0.15625q-2.796875 0 -4.296875 -1.515625q-1.5 -1.515625 -1.5 -4.421875q0 -1.390625 0.421875 -2.53125q0.4375 -1.140625 1.21875 -1.9375q0.796875 -0.8125 1.875 -1.25q1.09375 -0.453125 2.40625 -0.453125q0.921875 0 1.71875 0.140625q0.796875 0.125 1.515625 0.421875l0 1.9375q-0.765625 -0.390625 -1.5625 -0.578125q-0.78125 -0.1875 -1.625 -0.1875q-0.78125 0 -1.484375 0.3125q-0.6875 0.296875 -1.21875 0.859375q-0.53125 0.5625 -0.84375 1.375q-0.296875 0.796875 -0.296875 1.8125q0 2.140625 1.03125 3.203125q1.046875 1.0625 2.890625 1.0625q0.828125 0 1.609375 -0.1875q0.78125 -0.1875 1.5 -0.5625l0 1.890625zm8.0703125 -14.453125l-3.484375 0l0 -1.671875l5.546875 0l0 14.859375l3.5 0l0 1.703125l-9.4375 0l0 -1.703125l3.875 0l0 -13.1875zm16.742188 14.890625l-0.046875 -1.578125q-0.96875 0.9375 -1.953125 1.375q-0.984375 0.421875 -2.078125 0.421875q-1.015625 0 -1.734375 -0.265625q-0.703125 -0.265625 -1.171875 -0.703125q-0.453125 -0.453125 -0.671875 -1.0625q-0.21875 -0.609375 -0.21875 -1.328125q0 -1.765625 1.3125 -2.765625q1.328125 -1.015625 3.90625 -1.015625l2.4375 0l0 -1.03125q0 -1.03125 -0.671875 -1.65625q-0.671875 -0.640625 -2.046875 -0.640625q-0.984375 0 -1.953125 0.234375q-0.96875 0.21875 -2.0 0.625l0 -1.84375q0.390625 -0.140625 0.859375 -0.265625q0.46875 -0.140625 1.0 -0.234375q0.53125 -0.109375 1.09375 -0.171875q0.578125 -0.078125 1.171875 -0.078125q1.0625 0 1.921875 0.234375q0.859375 0.234375 1.4375 0.71875q0.59375 0.484375 0.90625 1.21875q0.328125 0.71875 0.328125 1.703125l0 8.109375l-1.828125 0zm-0.21875 -5.359375l-2.59375 0q-0.765625 0 -1.3125 0.15625q-0.546875 0.15625 -0.90625 0.4375q-0.34375 0.28125 -0.515625 0.671875q-0.171875 0.390625 -0.171875 0.875q0 0.34375 0.09375 0.65625q0.109375 0.3125 0.34375 0.5625q0.234375 0.234375 0.609375 0.375q0.375 0.140625 0.921875 0.140625q0.703125 0 1.609375 -0.421875q0.90625 -0.4375 1.921875 -1.359375l0 -2.09375zm5.8515625 -6.40625l1.8125 0l0.09375 1.890625q0.515625 -0.609375 0.984375 -1.0q0.484375 -0.40625 0.9375 -0.65625q0.46875 -0.25 0.953125 -0.34375q0.484375 -0.109375 1.0 -0.109375q1.8125 0 2.734375 1.078125q0.9375 1.078125 0.9375 3.234375l0 7.671875l-2.03125 0l0 -7.515625q0 -1.375 -0.515625 -2.03125q-0.515625 -0.671875 -1.53125 -0.671875q-0.375 0 -0.734375 0.109375q-0.359375 0.109375 -0.75 0.390625q-0.390625 0.265625 -0.84375 0.734375q-0.4375 0.46875 -1.0 1.171875l0 7.8125l-2.046875 0l0 -11.765625zm21.664062 1.65625q0.328125 0.421875 0.515625 0.96875q0.1875 0.53125 0.1875 1.171875q0 0.90625 -0.34375 1.671875q-0.328125 0.75 -0.9375 1.296875q-0.609375 0.53125 -1.46875 0.828125q-0.84375 0.296875 -1.859375 0.296875q-0.734375 0 -1.390625 -0.15625q-0.640625 -0.15625 -1.015625 -0.390625q-0.21875 0.328125 -0.375 0.625q-0.15625 0.296875 -0.15625 0.65625q0 0.4375 0.421875 0.734375q0.4375 0.296875 1.140625 0.3125l3.09375 0.125q0.875 0.015625 1.625 0.21875q0.75 0.203125 1.28125 0.578125q0.53125 0.375 0.828125 0.9375q0.296875 0.546875 0.296875 1.265625q0 0.78125 -0.34375 1.484375q-0.328125 0.703125 -1.046875 1.234375q-0.703125 0.546875 -1.796875 0.859375q-1.09375 0.3125 -2.59375 0.3125q-1.421875 0 -2.421875 -0.234375q-1.0 -0.21875 -1.65625 -0.625q-0.640625 -0.40625 -0.9375 -0.96875q-0.28125 -0.546875 -0.28125 -1.21875q0 -0.859375 0.390625 -1.5q0.40625 -0.640625 1.234375 -1.25q-0.3125 -0.140625 -0.53125 -0.34375q-0.21875 -0.21875 -0.359375 -0.46875q-0.140625 -0.25 -0.21875 -0.53125q-0.0625 -0.28125 -0.0625 -0.546875q0 -0.765625 0.359375 -1.390625q0.359375 -0.640625 0.84375 -1.203125q-0.21875 -0.265625 -0.390625 -0.515625q-0.171875 -0.265625 -0.296875 -0.5625q-0.125 -0.296875 -0.1875 -0.640625q-0.0625 -0.359375 -0.0625 -0.796875q0 -0.921875 0.328125 -1.671875q0.34375 -0.75 0.9375 -1.28125q0.609375 -0.546875 1.453125 -0.84375q0.859375 -0.3125 1.890625 -0.3125q0.4375 0 0.828125 0.0625q0.40625 0.0625 0.703125 0.15625l4.265625 0l0 1.65625l-1.890625 0zm-7.078125 11.8125q0 0.828125 0.859375 1.203125q0.875 0.390625 2.421875 0.390625q0.984375 0 1.640625 -0.1875q0.65625 -0.171875 1.0625 -0.453125q0.40625 -0.28125 0.578125 -0.65625q0.1875 -0.375 0.1875 -0.75q0 -0.71875 -0.59375 -1.0625q-0.578125 -0.34375 -1.796875 -0.40625l-3.0625 -0.09375q-0.390625 0.25 -0.640625 0.5q-0.25 0.25 -0.390625 0.5q-0.140625 0.25 -0.203125 0.5q-0.0625 0.25 -0.0625 0.515625zm0.625 -9.625q0 0.5625 0.1875 1.03125q0.1875 0.46875 0.53125 0.796875q0.34375 0.328125 0.796875 0.515625q0.46875 0.171875 1.03125 0.171875q0.609375 0 1.078125 -0.203125q0.484375 -0.203125 0.796875 -0.546875q0.328125 -0.359375 0.5 -0.8125q0.171875 -0.46875 0.171875 -0.953125q0 -0.5625 -0.1875 -1.03125q-0.1875 -0.46875 -0.53125 -0.796875q-0.34375 -0.328125 -0.8125 -0.5q-0.453125 -0.1875 -1.015625 -0.1875q-0.609375 0 -1.09375 0.21875q-0.46875 0.203125 -0.796875 0.546875q-0.3125 0.34375 -0.484375 0.796875q-0.171875 0.453125 -0.171875 0.953125zm32.765625 7.921875l0 -8.453125q0 -0.546875 -0.046875 -0.890625q-0.03125 -0.359375 -0.125 -0.5625q-0.078125 -0.203125 -0.21875 -0.28125q-0.140625 -0.09375 -0.328125 -0.09375q-0.234375 0 -0.4375 0.140625q-0.203125 0.140625 -0.4375 0.46875q-0.21875 0.3125 -0.5 0.828125q-0.265625 0.515625 -0.640625 1.28125l0 7.5625l-1.875 0l0 -8.234375q0 -0.640625 -0.046875 -1.03125q-0.03125 -0.40625 -0.125 -0.625q-0.078125 -0.21875 -0.21875 -0.296875q-0.140625 -0.09375 -0.34375 -0.09375q-0.203125 0 -0.390625 0.125q-0.1875 0.109375 -0.421875 0.421875q-0.234375 0.296875 -0.515625 0.828125q-0.28125 0.53125 -0.65625 1.34375l0 7.5625l-1.875 0l0 -11.765625l1.546875 0l0.09375 2.234375q0.3125 -0.671875 0.59375 -1.140625q0.296875 -0.46875 0.59375 -0.75q0.3125 -0.28125 0.65625 -0.421875q0.34375 -0.140625 0.765625 -0.140625q0.953125 0 1.4375 0.625q0.5 0.625 0.5 1.921875q0.28125 -0.609375 0.546875 -1.078125q0.265625 -0.484375 0.578125 -0.796875q0.3125 -0.328125 0.6875 -0.5q0.375 -0.171875 0.859375 -0.171875q2.21875 0 2.21875 3.421875l0 8.5625l-1.875 0zm12.3671875 0l-0.046875 -1.578125q-0.96875 0.9375 -1.953125 1.375q-0.984375 0.421875 -2.078125 0.421875q-1.015625 0 -1.734375 -0.265625q-0.703125 -0.265625 -1.171875 -0.703125q-0.453125 -0.453125 -0.671875 -1.0625q-0.21875 -0.609375 -0.21875 -1.328125q0 -1.765625 1.3125 -2.765625q1.328125 -1.015625 3.90625 -1.015625l2.4375 0l0 -1.03125q0 -1.03125 -0.671875 -1.65625q-0.671875 -0.640625 -2.046875 -0.640625q-0.984375 0 -1.953125 0.234375q-0.96875 0.21875 -2.0 0.625l0 -1.84375q0.390625 -0.140625 0.859375 -0.265625q0.46875 -0.140625 1.0 -0.234375q0.53125 -0.109375 1.09375 -0.171875q0.578125 -0.078125 1.171875 -0.078125q1.0625 0 1.921875 0.234375q0.859375 0.234375 1.4375 0.71875q0.59375 0.484375 0.90625 1.21875q0.328125 0.71875 0.328125 1.703125l0 8.109375l-1.828125 0zm-0.21875 -5.359375l-2.59375 0q-0.765625 0 -1.3125 0.15625q-0.546875 0.15625 -0.90625 0.4375q-0.34375 0.28125 -0.515625 0.671875q-0.171875 0.390625 -0.171875 0.875q0 0.34375 0.09375 0.65625q0.109375 0.3125 0.34375 0.5625q0.234375 0.234375 0.609375 0.375q0.375 0.140625 0.921875 0.140625q0.703125 0 1.609375 -0.421875q0.90625 -0.4375 1.921875 -1.359375l0 -2.09375zm9.8671875 -4.71875l-3.484375 0l0 -1.6875l5.546875 0l0 10.0625l3.5 0l0 1.703125l-9.4375 0l0 -1.703125l3.875 0l0 -8.375zm0.703125 -6.625q0.34375 0 0.640625 0.125q0.296875 0.125 0.5 0.34375q0.21875 0.21875 0.34375 0.515625q0.125 0.28125 0.125 0.625q0 0.328125 -0.125 0.625q-0.125 0.28125 -0.34375 0.515625q-0.203125 0.21875 -0.5 0.34375q-0.296875 0.125 -0.640625 0.125q-0.328125 0 -0.625 -0.125q-0.296875 -0.125 -0.515625 -0.34375q-0.21875 -0.234375 -0.34375 -0.515625q-0.109375 -0.296875 -0.109375 -0.625q0 -0.34375 0.109375 -0.625q0.125 -0.296875 0.34375 -0.515625q0.21875 -0.21875 0.515625 -0.34375q0.296875 -0.125 0.625 -0.125zm8.4765625 4.9375l1.8125 0l0.09375 1.890625q0.515625 -0.609375 0.984375 -1.0q0.484375 -0.40625 0.9375 -0.65625q0.46875 -0.25 0.953125 -0.34375q0.484375 -0.109375 1.0 -0.109375q1.8125 0 2.734375 1.078125q0.9375 1.078125 0.9375 3.234375l0 7.671875l-2.03125 0l0 -7.515625q0 -1.375 -0.515625 -2.03125q-0.515625 -0.671875 -1.53125 -0.671875q-0.375 0 -0.734375 0.109375q-0.359375 0.109375 -0.75 0.390625q-0.390625 0.265625 -0.84375 0.734375q-0.4375 0.46875 -1.0 1.171875l0 7.8125l-2.046875 0l0 -11.765625zm17.820312 8.078125q0.40625 0 0.765625 0.15625q0.359375 0.140625 0.609375 0.421875q0.265625 0.265625 0.421875 0.625q0.15625 0.34375 0.15625 0.765625q0 0.390625 -0.15625 0.75q-0.15625 0.34375 -0.421875 0.609375q-0.25 0.265625 -0.609375 0.421875q-0.359375 0.15625 -0.765625 0.15625q-0.40625 0 -0.765625 -0.15625q-0.34375 -0.15625 -0.609375 -0.421875q-0.265625 -0.265625 -0.421875 -0.609375q-0.140625 -0.359375 -0.140625 -0.75q0 -0.421875 0.140625 -0.765625q0.15625 -0.359375 0.421875 -0.625q0.265625 -0.28125 0.609375 -0.421875q0.359375 -0.15625 0.765625 -0.15625zm18.820312 -2.296875q0 1.375 -0.390625 2.515625q-0.390625 1.140625 -1.125 1.96875q-0.71875 0.8125 -1.765625 1.265625q-1.03125 0.453125 -2.359375 0.453125q-1.265625 0 -2.265625 -0.390625q-1.0 -0.40625 -1.703125 -1.15625q-0.703125 -0.765625 -1.078125 -1.890625q-0.359375 -1.125 -0.359375 -2.59375q0 -1.375 0.390625 -2.5q0.390625 -1.140625 1.109375 -1.953125q0.734375 -0.8125 1.765625 -1.265625q1.046875 -0.453125 2.375 -0.453125q1.265625 0 2.265625 0.40625q1.0 0.390625 1.6875 1.140625q0.703125 0.75 1.078125 1.875q0.375 1.125 0.375 2.578125zm-2.09375 0.09375q0 -1.078125 -0.25 -1.890625q-0.234375 -0.828125 -0.6875 -1.359375q-0.4375 -0.546875 -1.078125 -0.828125q-0.625 -0.28125 -1.421875 -0.28125q-0.90625 0 -1.5625 0.359375q-0.640625 0.359375 -1.0625 0.96875q-0.421875 0.59375 -0.609375 1.390625q-0.1875 0.78125 -0.1875 1.640625q0 1.09375 0.234375 1.921875q0.234375 0.8125 0.671875 1.359375q0.453125 0.546875 1.078125 0.828125q0.640625 0.265625 1.4375 0.265625q0.921875 0 1.5625 -0.359375q0.65625 -0.359375 1.0625 -0.953125q0.421875 -0.59375 0.609375 -1.375q0.203125 -0.796875 0.203125 -1.6875zm28.671875 -8.765625q-1.59375 -0.34375 -2.765625 -0.34375q-2.75 0 -2.75 2.875l0 2.0625l5.15625 0l0 1.703125l-5.15625 0l0 8.359375l-2.078125 0l0 -8.359375l-3.78125 0l0 -1.703125l3.78125 0l0 -1.9375q0 -4.703125 4.90625 -4.703125q1.21875 0 2.6875 0.28125l0 1.765625zm-12.3125 2.890625l0 0zm25.320312 5.78125q0 1.375 -0.390625 2.515625q-0.390625 1.140625 -1.125 1.96875q-0.71875 0.8125 -1.765625 1.265625q-1.03125 0.453125 -2.359375 0.453125q-1.265625 0 -2.265625 -0.390625q-1.0 -0.40625 -1.703125 -1.15625q-0.703125 -0.765625 -1.078125 -1.890625q-0.359375 -1.125 -0.359375 -2.59375q0 -1.375 0.390625 -2.5q0.390625 -1.140625 1.109375 -1.953125q0.734375 -0.8125 1.765625 -1.265625q1.046875 -0.453125 2.375 -0.453125q1.265625 0 2.265625 0.40625q1.0 0.390625 1.6875 1.140625q0.703125 0.75 1.078125 1.875q0.375 1.125 0.375 2.578125zm-2.09375 0.09375q0 -1.078125 -0.25 -1.890625q-0.234375 -0.828125 -0.6875 -1.359375q-0.4375 -0.546875 -1.078125 -0.828125q-0.625 -0.28125 -1.421875 -0.28125q-0.90625 0 -1.5625 0.359375q-0.640625 0.359375 -1.0625 0.96875q-0.421875 0.59375 -0.609375 1.390625q-0.1875 0.78125 -0.1875 1.640625q0 1.09375 0.234375 1.921875q0.234375 0.8125 0.671875 1.359375q0.453125 0.546875 1.078125 0.828125q0.640625 0.265625 1.4375 0.265625q0.921875 0 1.5625 -0.359375q0.65625 -0.359375 1.0625 -0.953125q0.421875 -0.59375 0.609375 -1.375q0.203125 -0.796875 0.203125 -1.6875zm15.2890625 -0.09375q0 1.375 -0.390625 2.515625q-0.390625 1.140625 -1.125 1.96875q-0.71875 0.8125 -1.765625 1.265625q-1.03125 0.453125 -2.359375 0.453125q-1.265625 0 -2.265625 -0.390625q-1.0 -0.40625 -1.703125 -1.15625q-0.703125 -0.765625 -1.078125 -1.890625q-0.359375 -1.125 -0.359375 -2.59375q0 -1.375 0.390625 -2.5q0.390625 -1.140625 1.109375 -1.953125q0.734375 -0.8125 1.765625 -1.265625q1.046875 -0.453125 2.375 -0.453125q1.265625 0 2.265625 0.40625q1.0 0.390625 1.6875 1.140625q0.703125 0.75 1.078125 1.875q0.375 1.125 0.375 2.578125zm-2.09375 0.09375q0 -1.078125 -0.25 -1.890625q-0.234375 -0.828125 -0.6875 -1.359375q-0.4375 -0.546875 -1.078125 -0.828125q-0.625 -0.28125 -1.421875 -0.28125q-0.90625 0 -1.5625 0.359375q-0.640625 0.359375 -1.0625 0.96875q-0.421875 0.59375 -0.609375 1.390625q-0.1875 0.78125 -0.1875 1.640625q0 1.09375 0.234375 1.921875q0.234375 0.8125 0.671875 1.359375q0.453125 0.546875 1.078125 0.828125q0.640625 0.265625 1.4375 0.265625q0.921875 0 1.5625 -0.359375q0.65625 -0.359375 1.0625 -0.953125q0.421875 -0.59375 0.609375 -1.375q0.203125 -0.796875 0.203125 -1.6875zm15.1015625 -0.203125q0 1.46875 -0.40625 2.625q-0.40625 1.140625 -1.15625 1.953125q-0.734375 0.796875 -1.8125 1.234375q-1.0625 0.421875 -2.390625 0.421875q-1.046875 0 -2.140625 -0.203125q-1.09375 -0.203125 -2.15625 -0.625l0 -15.875l2.046875 0l0 4.5625l-0.09375 2.171875q0.875 -1.171875 1.875 -1.65625q1.0 -0.5 2.15625 -0.5q1.0 0 1.765625 0.421875q0.765625 0.421875 1.28125 1.203125q0.515625 0.765625 0.765625 1.84375q0.265625 1.078125 0.265625 2.421875zm-2.09375 0.09375q0 -0.921875 -0.140625 -1.6875q-0.125 -0.78125 -0.421875 -1.328125q-0.296875 -0.5625 -0.75 -0.875q-0.453125 -0.3125 -1.09375 -0.3125q-0.375 0 -0.78125 0.125q-0.390625 0.125 -0.828125 0.421875q-0.421875 0.28125 -0.90625 0.765625q-0.46875 0.46875 -1.0 1.171875l0 5.703125q0.59375 0.234375 1.203125 0.375q0.625 0.125 1.1875 0.125q0.703125 0 1.34375 -0.21875q0.640625 -0.21875 1.125 -0.734375q0.484375 -0.53125 0.765625 -1.390625q0.296875 -0.859375 0.296875 -2.140625zm12.7890625 6.0l-0.046875 -1.578125q-0.96875 0.9375 -1.953125 1.375q-0.984375 0.421875 -2.078125 0.421875q-1.015625 0 -1.734375 -0.265625q-0.703125 -0.265625 -1.171875 -0.703125q-0.453125 -0.453125 -0.671875 -1.0625q-0.21875 -0.609375 -0.21875 -1.328125q0 -1.765625 1.3125 -2.765625q1.328125 -1.015625 3.90625 -1.015625l2.4375 0l0 -1.03125q0 -1.03125 -0.671875 -1.65625q-0.671875 -0.640625 -2.046875 -0.640625q-0.984375 0 -1.953125 0.234375q-0.96875 0.21875 -2.0 0.625l0 -1.84375q0.390625 -0.140625 0.859375 -0.265625q0.46875 -0.140625 1.0 -0.234375q0.53125 -0.109375 1.09375 -0.171875q0.578125 -0.078125 1.171875 -0.078125q1.0625 0 1.921875 0.234375q0.859375 0.234375 1.4375 0.71875q0.59375 0.484375 0.90625 1.21875q0.328125 0.71875 0.328125 1.703125l0 8.109375l-1.828125 0zm-0.21875 -5.359375l-2.59375 0q-0.765625 0 -1.3125 0.15625q-0.546875 0.15625 -0.90625 0.4375q-0.34375 0.28125 -0.515625 0.671875q-0.171875 0.390625 -0.171875 0.875q0 0.34375 0.09375 0.65625q0.109375 0.3125 0.34375 0.5625q0.234375 0.234375 0.609375 0.375q0.375 0.140625 0.921875 0.140625q0.703125 0 1.609375 -0.421875q0.90625 -0.4375 1.921875 -1.359375l0 -2.09375zm6.3359375 -6.40625l1.859375 0l0.0625 2.171875q1.046875 -1.265625 2.046875 -1.828125q1.015625 -0.5625 2.046875 -0.5625q1.828125 0 2.765625 1.1875q0.953125 1.1875 0.890625 3.515625l-2.0625 0q0.03125 -1.546875 -0.453125 -2.234375q-0.484375 -0.703125 -1.421875 -0.703125q-0.421875 0 -0.84375 0.15625q-0.40625 0.140625 -0.84375 0.46875q-0.4375 0.3125 -0.9375 0.8125q-0.484375 0.5 -1.046875 1.21875l0 7.5625l-2.0625 0l0 -11.765625zm17.335938 8.078125q0.40625 0 0.765625 0.15625q0.359375 0.140625 0.609375 0.421875q0.265625 0.265625 0.421875 0.625q0.15625 0.34375 0.15625 0.765625q0 0.390625 -0.15625 0.75q-0.15625 0.34375 -0.421875 0.609375q-0.25 0.265625 -0.609375 0.421875q-0.359375 0.15625 -0.765625 0.15625q-0.40625 0 -0.765625 -0.15625q-0.34375 -0.15625 -0.609375 -0.421875q-0.265625 -0.265625 -0.421875 -0.609375q-0.140625 -0.359375 -0.140625 -0.75q0 -0.421875 0.140625 -0.765625q0.15625 -0.359375 0.421875 -0.625q0.265625 -0.28125 0.609375 -0.421875q0.359375 -0.15625 0.765625 -0.15625zm18.820312 -2.296875q0 1.375 -0.390625 2.515625q-0.390625 1.140625 -1.125 1.96875q-0.71875 0.8125 -1.765625 1.265625q-1.03125 0.453125 -2.359375 0.453125q-1.265625 0 -2.265625 -0.390625q-1.0 -0.40625 -1.703125 -1.15625q-0.703125 -0.765625 -1.078125 -1.890625q-0.359375 -1.125 -0.359375 -2.59375q0 -1.375 0.390625 -2.5q0.390625 -1.140625 1.109375 -1.953125q0.734375 -0.8125 1.765625 -1.265625q1.046875 -0.453125 2.375 -0.453125q1.265625 0 2.265625 0.40625q1.0 0.390625 1.6875 1.140625q0.703125 0.75 1.078125 1.875q0.375 1.125 0.375 2.578125zm-2.09375 0.09375q0 -1.078125 -0.25 -1.890625q-0.234375 -0.828125 -0.6875 -1.359375q-0.4375 -0.546875 -1.078125 -0.828125q-0.625 -0.28125 -1.421875 -0.28125q-0.90625 0 -1.5625 0.359375q-0.640625 0.359375 -1.0625 0.96875q-0.421875 0.59375 -0.609375 1.390625q-0.1875 0.78125 -0.1875 1.640625q0 1.09375 0.234375 1.921875q0.234375 0.8125 0.671875 1.359375q0.453125 0.546875 1.078125 0.828125q0.640625 0.265625 1.4375 0.265625q0.921875 0 1.5625 -0.359375q0.65625 -0.359375 1.0625 -0.953125q0.421875 -0.59375 0.609375 -1.375q0.203125 -0.796875 0.203125 -1.6875zm26.46875 0.46875l-7.015625 0l0 -1.921875l7.015625 0l0 1.921875zm15.2109375 -0.5625q0 1.375 -0.390625 2.515625q-0.390625 1.140625 -1.125 1.96875q-0.71875 0.8125 -1.765625 1.265625q-1.03125 0.453125 -2.359375 0.453125q-1.265625 0 -2.265625 -0.390625q-1.0 -0.40625 -1.703125 -1.15625q-0.703125 -0.765625 -1.078125 -1.890625q-0.359375 -1.125 -0.359375 -2.59375q0 -1.375 0.390625 -2.5q0.390625 -1.140625 1.109375 -1.953125q0.734375 -0.8125 1.765625 -1.265625q1.046875 -0.453125 2.375 -0.453125q1.265625 0 2.265625 0.40625q1.0 0.390625 1.6875 1.140625q0.703125 0.75 1.078125 1.875q0.375 1.125 0.375 2.578125zm-2.09375 0.09375q0 -1.078125 -0.25 -1.890625q-0.234375 -0.828125 -0.6875 -1.359375q-0.4375 -0.546875 -1.078125 -0.828125q-0.625 -0.28125 -1.421875 -0.28125q-0.90625 0 -1.5625 0.359375q-0.640625 0.359375 -1.0625 0.96875q-0.421875 0.59375 -0.609375 1.390625q-0.1875 0.78125 -0.1875 1.640625q0 1.09375 0.234375 1.921875q0.234375 0.8125 0.671875 1.359375q0.453125 0.546875 1.078125 0.828125q0.640625 0.265625 1.4375 0.265625q0.921875 0 1.5625 -0.359375q0.65625 -0.359375 1.0625 -0.953125q0.421875 -0.59375 0.609375 -1.375q0.203125 -0.796875 0.203125 -1.6875zm26.625 5.890625l0 -8.453125q0 -0.546875 -0.046875 -0.890625q-0.03125 -0.359375 -0.125 -0.5625q-0.078125 -0.203125 -0.21875 -0.28125q-0.140625 -0.09375 -0.328125 -0.09375q-0.234375 0 -0.4375 0.140625q-0.203125 0.140625 -0.4375 0.46875q-0.21875 0.3125 -0.5 0.828125q-0.265625 0.515625 -0.640625 1.28125l0 7.5625l-1.875 0l0 -8.234375q0 -0.640625 -0.046875 -1.03125q-0.03125 -0.40625 -0.125 -0.625q-0.078125 -0.21875 -0.21875 -0.296875q-0.140625 -0.09375 -0.34375 -0.09375q-0.203125 0 -0.390625 0.125q-0.1875 0.109375 -0.421875 0.421875q-0.234375 0.296875 -0.515625 0.828125q-0.28125 0.53125 -0.65625 1.34375l0 7.5625l-1.875 0l0 -11.765625l1.546875 0l0.09375 2.234375q0.3125 -0.671875 0.59375 -1.140625q0.296875 -0.46875 0.59375 -0.75q0.3125 -0.28125 0.65625 -0.421875q0.34375 -0.140625 0.765625 -0.140625q0.953125 0 1.4375 0.625q0.5 0.625 0.5 1.921875q0.28125 -0.609375 0.546875 -1.078125q0.265625 -0.484375 0.578125 -0.796875q0.3125 -0.328125 0.6875 -0.5q0.375 -0.171875 0.859375 -0.171875q2.21875 0 2.21875 3.421875l0 8.5625l-1.875 0zm12.3671875 0l-0.046875 -1.578125q-0.96875 0.9375 -1.953125 1.375q-0.984375 0.421875 -2.078125 0.421875q-1.015625 0 -1.734375 -0.265625q-0.703125 -0.265625 -1.171875 -0.703125q-0.453125 -0.453125 -0.671875 -1.0625q-0.21875 -0.609375 -0.21875 -1.328125q0 -1.765625 1.3125 -2.765625q1.328125 -1.015625 3.90625 -1.015625l2.4375 0l0 -1.03125q0 -1.03125 -0.671875 -1.65625q-0.671875 -0.640625 -2.046875 -0.640625q-0.984375 0 -1.953125 0.234375q-0.96875 0.21875 -2.0 0.625l0 -1.84375q0.390625 -0.140625 0.859375 -0.265625q0.46875 -0.140625 1.0 -0.234375q0.53125 -0.109375 1.09375 -0.171875q0.578125 -0.078125 1.171875 -0.078125q1.0625 0 1.921875 0.234375q0.859375 0.234375 1.4375 0.71875q0.59375 0.484375 0.90625 1.21875q0.328125 0.71875 0.328125 1.703125l0 8.109375l-1.828125 0zm-0.21875 -5.359375l-2.59375 0q-0.765625 0 -1.3125 0.15625q-0.546875 0.15625 -0.90625 0.4375q-0.34375 0.28125 -0.515625 0.671875q-0.171875 0.390625 -0.171875 0.875q0 0.34375 0.09375 0.65625q0.109375 0.3125 0.34375 0.5625q0.234375 0.234375 0.609375 0.375q0.375 0.140625 0.921875 0.140625q0.703125 0 1.609375 -0.421875q0.90625 -0.4375 1.921875 -1.359375l0 -2.09375zm9.8671875 -4.71875l-3.484375 0l0 -1.6875l5.546875 0l0 10.0625l3.5 0l0 1.703125l-9.4375 0l0 -1.703125l3.875 0l0 -8.375zm0.703125 -6.625q0.34375 0 0.640625 0.125q0.296875 0.125 0.5 0.34375q0.21875 0.21875 0.34375 0.515625q0.125 0.28125 0.125 0.625q0 0.328125 -0.125 0.625q-0.125 0.28125 -0.34375 0.515625q-0.203125 0.21875 -0.5 0.34375q-0.296875 0.125 -0.640625 0.125q-0.328125 0 -0.625 -0.125q-0.296875 -0.125 -0.515625 -0.34375q-0.21875 -0.234375 -0.34375 -0.515625q-0.109375 -0.296875 -0.109375 -0.625q0 -0.34375 0.109375 -0.625q0.125 -0.296875 0.34375 -0.515625q0.21875 -0.21875 0.515625 -0.34375q0.296875 -0.125 0.625 -0.125zm8.4765625 4.9375l1.8125 0l0.09375 1.890625q0.515625 -0.609375 0.984375 -1.0q0.484375 -0.40625 0.9375 -0.65625q0.46875 -0.25 0.953125 -0.34375q0.484375 -0.109375 1.0 -0.109375q1.8125 0 2.734375 1.078125q0.9375 1.078125 0.9375 3.234375l0 7.671875l-2.03125 0l0 -7.515625q0 -1.375 -0.515625 -2.03125q-0.515625 -0.671875 -1.53125 -0.671875q-0.375 0 -0.734375 0.109375q-0.359375 0.109375 -0.75 0.390625q-0.390625 0.265625 -0.84375 0.734375q-0.4375 0.46875 -1.0 1.171875l0 7.8125l-2.046875 0l0 -11.765625z" fill-rule="nonzero"></path><path fill="#000000" fill-opacity="0.0" d="m271.49606 317.19946l171.59055 0l0 88.12601l-171.59055 0z" fill-rule="evenodd"></path><path fill="#000000" d="m303.12726 363.30246q0 0.421875 -0.015625 0.71875q0 0.296875 -0.03125 0.546875l-8.265625 0q0 1.8125 1.0 2.78125q1.015625 0.96875 2.921875 0.96875q0.515625 0 1.03125 -0.046875q0.515625 -0.046875 0.984375 -0.109375q0.484375 -0.078125 0.921875 -0.15625q0.453125 -0.09375 0.828125 -0.203125l0 1.6875q-0.84375 0.234375 -1.890625 0.375q-1.046875 0.15625 -2.171875 0.15625q-1.515625 0 -2.609375 -0.40625q-1.078125 -0.421875 -1.78125 -1.203125q-0.6875 -0.78125 -1.03125 -1.90625q-0.328125 -1.140625 -0.328125 -2.5625q0 -1.25 0.359375 -2.34375q0.359375 -1.109375 1.03125 -1.953125q0.6875 -0.84375 1.6875 -1.328125q1.0 -0.5 2.265625 -0.5q1.234375 0 2.171875 0.390625q0.953125 0.390625 1.59375 1.109375q0.65625 0.703125 0.984375 1.71875q0.34375 1.0 0.34375 2.265625zm-2.125 -0.296875q0.046875 -0.78125 -0.140625 -1.4375q-0.1875 -0.65625 -0.59375 -1.125q-0.390625 -0.46875 -0.984375 -0.71875q-0.578125 -0.265625 -1.34375 -0.265625q-0.671875 0 -1.21875 0.265625q-0.546875 0.25 -0.953125 0.71875q-0.390625 0.46875 -0.640625 1.125q-0.25 0.65625 -0.3125 1.4375l6.1875 0zm15.9921875 6.796875l-2.703125 0l-3.1875 -4.484375l-3.140625 4.484375l-2.625 0l4.546875 -5.90625l-4.34375 -5.859375l2.609375 0l3.09375 4.515625l3.046875 -4.515625l2.515625 0l-4.421875 5.90625l4.609375 5.859375zm12.5234375 -6.5q0 0.421875 -0.015625 0.71875q0 0.296875 -0.03125 0.546875l-8.265625 0q0 1.8125 1.0 2.78125q1.015625 0.96875 2.921875 0.96875q0.515625 0 1.03125 -0.046875q0.515625 -0.046875 0.984375 -0.109375q0.484375 -0.078125 0.921875 -0.15625q0.453125 -0.09375 0.828125 -0.203125l0 1.6875q-0.84375 0.234375 -1.890625 0.375q-1.046875 0.15625 -2.171875 0.15625q-1.515625 0 -2.609375 -0.40625q-1.078125 -0.421875 -1.78125 -1.203125q-0.6875 -0.78125 -1.03125 -1.90625q-0.328125 -1.140625 -0.328125 -2.5625q0 -1.25 0.359375 -2.34375q0.359375 -1.109375 1.03125 -1.953125q0.6875 -0.84375 1.6875 -1.328125q1.0 -0.5 2.265625 -0.5q1.234375 0 2.171875 0.390625q0.953125 0.390625 1.59375 1.109375q0.65625 0.703125 0.984375 1.71875q0.34375 1.0 0.34375 2.265625zm-2.125 -0.296875q0.046875 -0.78125 -0.140625 -1.4375q-0.1875 -0.65625 -0.59375 -1.125q-0.390625 -0.46875 -0.984375 -0.71875q-0.578125 -0.265625 -1.34375 -0.265625q-0.671875 0 -1.21875 0.265625q-0.546875 0.25 -0.953125 0.71875q-0.390625 0.46875 -0.640625 1.125q-0.25 0.65625 -0.3125 1.4375l6.1875 0zm14.5234375 6.359375q-0.796875 0.3125 -1.640625 0.453125q-0.828125 0.15625 -1.71875 0.15625q-2.796875 0 -4.296875 -1.515625q-1.5 -1.515625 -1.5 -4.421875q0 -1.390625 0.421875 -2.53125q0.4375 -1.140625 1.21875 -1.9375q0.796875 -0.8125 1.875 -1.25q1.09375 -0.453125 2.40625 -0.453125q0.921875 0 1.71875 0.140625q0.796875 0.125 1.515625 0.421875l0 1.9375q-0.765625 -0.390625 -1.5625 -0.578125q-0.78125 -0.1875 -1.625 -0.1875q-0.78125 0 -1.484375 0.3125q-0.6875 0.296875 -1.21875 0.859375q-0.53125 0.5625 -0.84375 1.375q-0.296875 0.796875 -0.296875 1.8125q0 2.140625 1.03125 3.203125q1.046875 1.0625 2.890625 1.0625q0.828125 0 1.609375 -0.1875q0.78125 -0.1875 1.5 -0.5625l0 1.890625zm13.5078125 0.4375l-1.828125 0l-0.0625 -1.90625q-0.53125 0.609375 -1.015625 1.015625q-0.46875 0.40625 -0.9375 0.65625q-0.46875 0.25 -0.9375 0.34375q-0.46875 0.109375 -1.0 0.109375q-1.8125 0 -2.75 -1.0625q-0.921875 -1.078125 -0.921875 -3.234375l0 -7.6875l2.046875 0l0 7.515625q0 2.71875 2.03125 2.71875q0.375 0 0.734375 -0.109375q0.359375 -0.125 0.75 -0.390625q0.390625 -0.28125 0.84375 -0.75q0.453125 -0.46875 1.015625 -1.1875l0 -7.796875l2.03125 0l0 11.765625zm13.2265625 -0.171875q-0.6875 0.1875 -1.4375 0.265625q-0.734375 0.078125 -1.5 0.078125q-2.203125 0 -3.296875 -1.0q-1.09375 -1.015625 -1.09375 -3.09375l0 -6.140625l-3.296875 0l0 -1.703125l3.296875 0l0 -3.234375l2.046875 -0.53125l0 3.765625l5.28125 0l0 1.703125l-5.28125 0l0 5.984375q0 1.265625 0.671875 1.890625q0.671875 0.625 1.984375 0.625q0.5625 0 1.21875 -0.078125q0.671875 -0.09375 1.40625 -0.28125l0 1.75zm11.2734375 0.171875l-0.046875 -1.578125q-0.96875 0.9375 -1.953125 1.375q-0.984375 0.421875 -2.078125 0.421875q-1.015625 0 -1.734375 -0.265625q-0.703125 -0.265625 -1.171875 -0.703125q-0.453125 -0.453125 -0.671875 -1.0625q-0.21875 -0.609375 -0.21875 -1.328125q0 -1.765625 1.3125 -2.765625q1.328125 -1.015625 3.90625 -1.015625l2.4375 0l0 -1.03125q0 -1.03125 -0.671875 -1.65625q-0.671875 -0.640625 -2.046875 -0.640625q-0.984375 0 -1.953125 0.234375q-0.96875 0.21875 -2.0 0.625l0 -1.84375q0.390625 -0.140625 0.859375 -0.265625q0.46875 -0.140625 1.0 -0.234375q0.53125 -0.109375 1.09375 -0.171875q0.578125 -0.078125 1.171875 -0.078125q1.0625 0 1.921875 0.234375q0.859375 0.234375 1.4375 0.71875q0.59375 0.484375 0.90625 1.21875q0.328125 0.71875 0.328125 1.703125l0 8.109375l-1.828125 0zm-0.21875 -5.359375l-2.59375 0q-0.765625 0 -1.3125 0.15625q-0.546875 0.15625 -0.90625 0.4375q-0.34375 0.28125 -0.515625 0.671875q-0.171875 0.390625 -0.171875 0.875q0 0.34375 0.09375 0.65625q0.109375 0.3125 0.34375 0.5625q0.234375 0.234375 0.609375 0.375q0.375 0.140625 0.921875 0.140625q0.703125 0 1.609375 -0.421875q0.90625 -0.4375 1.921875 -1.359375l0 -2.09375zm15.9140625 -0.734375q0 1.46875 -0.40625 2.625q-0.40625 1.140625 -1.15625 1.953125q-0.734375 0.796875 -1.8125 1.234375q-1.0625 0.421875 -2.390625 0.421875q-1.046875 0 -2.140625 -0.203125q-1.09375 -0.203125 -2.15625 -0.625l0 -15.875l2.046875 0l0 4.5625l-0.09375 2.171875q0.875 -1.171875 1.875 -1.65625q1.0 -0.5 2.15625 -0.5q1.0 0 1.765625 0.421875q0.765625 0.421875 1.28125 1.203125q0.515625 0.765625 0.765625 1.84375q0.265625 1.078125 0.265625 2.421875zm-2.09375 0.09375q0 -0.921875 -0.140625 -1.6875q-0.125 -0.78125 -0.421875 -1.328125q-0.296875 -0.5625 -0.75 -0.875q-0.453125 -0.3125 -1.09375 -0.3125q-0.375 0 -0.78125 0.125q-0.390625 0.125 -0.828125 0.421875q-0.421875 0.28125 -0.90625 0.765625q-0.46875 0.46875 -1.0 1.171875l0 5.703125q0.59375 0.234375 1.203125 0.375q0.625 0.125 1.1875 0.125q0.703125 0 1.34375 -0.21875q0.640625 -0.21875 1.125 -0.734375q0.484375 -0.53125 0.765625 -1.390625q0.296875 -0.859375 0.296875 -2.140625zm9.2421875 -8.890625l-3.484375 0l0 -1.671875l5.546875 0l0 14.859375l3.5 0l0 1.703125l-9.4375 0l0 -1.703125l3.875 0l0 -13.1875zm19.117188 8.390625q0 0.421875 -0.015625 0.71875q0 0.296875 -0.03125 0.546875l-8.265625 0q0 1.8125 1.0 2.78125q1.015625 0.96875 2.921875 0.96875q0.515625 0 1.03125 -0.046875q0.515625 -0.046875 0.984375 -0.109375q0.484375 -0.078125 0.921875 -0.15625q0.453125 -0.09375 0.828125 -0.203125l0 1.6875q-0.84375 0.234375 -1.890625 0.375q-1.046875 0.15625 -2.171875 0.15625q-1.515625 0 -2.609375 -0.40625q-1.078125 -0.421875 -1.78125 -1.203125q-0.6875 -0.78125 -1.03125 -1.90625q-0.328125 -1.140625 -0.328125 -2.5625q0 -1.25 0.359375 -2.34375q0.359375 -1.109375 1.03125 -1.953125q0.6875 -0.84375 1.6875 -1.328125q1.0 -0.5 2.265625 -0.5q1.234375 0 2.171875 0.390625q0.953125 0.390625 1.59375 1.109375q0.65625 0.703125 0.984375 1.71875q0.34375 1.0 0.34375 2.265625zm-2.125 -0.296875q0.046875 -0.78125 -0.140625 -1.4375q-0.1875 -0.65625 -0.59375 -1.125q-0.390625 -0.46875 -0.984375 -0.71875q-0.578125 -0.265625 -1.34375 -0.265625q-0.671875 0 -1.21875 0.265625q-0.546875 0.25 -0.953125 0.71875q-0.390625 0.46875 -0.640625 1.125q-0.25 0.65625 -0.3125 1.4375l6.1875 0z" fill-rule="nonzero"></path></g></svg>

